<svg width="1458" height="1088" viewBox="0 0 1458 1088" fill="none" xmlns="http://www.w3.org/2000/svg">
<path d="M0 1088H1458V4.76837e-07H0V1088Z" fill="white"/>
<path d="M1356.69 866.094C1348.55 919.223 1326.47 969.992 1296.28 1016.06C1290.75 1024.5 1284.95 1032.79 1278.89 1040.9H190.882C185.409 1032.91 180.113 1024.6 175.026 1016.06C144.432 964.649 121.423 904.701 112.83 853.537C98.5032 768.203 117.942 691.378 176.442 624.591C208.989 587.434 249.242 568.846 293.389 548.423C223.715 345.468 437.823 166.326 626.589 108.432C886.215 28.8102 1304.93 85.3415 1318.64 401.545C1322.1 481.329 1306.4 555.27 1251.08 617.719C1252.2 617.436 1253.12 615.66 1253.98 614.939C1340.96 661.607 1370.24 777.76 1356.69 866.094" fill="#FFFBE9"/>
<path d="M88.5664 1040.9H1369.44V1016.06H88.5664V1040.9Z" fill="#545454"/>
<path d="M454.63 491.568L407.664 499.002C415.484 515.721 412.718 534.169 408.871 550.856C425.179 551.39 441.763 558.022 457.647 554.042C465.486 534.819 461.615 510.962 454.63 491.568" fill="#92A32B"/>
<path d="M456.765 486.258L409.801 493.691C417.619 510.41 414.853 528.86 411.005 545.545C427.315 546.081 443.899 552.711 459.782 548.732C467.621 529.508 463.749 505.653 456.765 486.258" fill="#BEE41B"/>
<path d="M421.947 507.448C430.957 504.986 440.116 503.786 449.458 503.762C450.605 503.759 450.605 501.989 449.458 501.992C439.963 502.018 430.634 503.238 421.474 505.741C420.369 506.043 420.839 507.75 421.947 507.448" fill="#92A32B"/>
<path d="M424.077 514.35C435.237 511.217 446.777 510.054 458.229 508.509C459.362 508.356 458.879 506.651 457.757 506.803C446.303 508.349 434.763 509.512 423.605 512.643C422.503 512.952 422.972 514.659 424.077 514.35" fill="#92A32B"/>
<path d="M422.24 521.283C432.951 520.643 443.018 516.57 453.426 514.35C454.548 514.11 454.073 512.405 452.954 512.643C442.709 514.83 432.779 518.884 422.24 519.513C421.1 519.582 421.094 521.352 422.24 521.283Z" fill="#92A32B"/>
<path d="M427.28 526.561C438.288 523.826 449.327 521.211 460.363 518.596C461.478 518.333 461.006 516.626 459.89 516.891C448.853 519.505 437.815 522.118 426.806 524.855C425.694 525.13 426.167 526.837 427.28 526.561Z" fill="#92A32B"/>
<path d="M971.337 193.402L1013.93 207.539C1004.05 221.91 1003.76 239.517 1004.76 255.65C989.484 253.643 973.011 257.272 958.835 251.125C954.514 232.016 961.824 210.394 971.337 193.402" fill="#92A32B"/>
<path d="M970.169 188.128L1012.76 202.266C1002.88 216.635 1002.6 234.245 1003.59 250.376C988.317 248.369 971.843 251.998 957.666 245.852C953.347 226.743 960.655 205.119 970.169 188.128Z" fill="#FDE427"/>
<path d="M999.311 213.213C991.3 209.534 982.956 207.011 974.259 205.555C973.191 205.376 973.465 203.727 974.533 203.906C983.373 205.387 991.873 207.957 1000.02 211.695C1001 212.145 1000.3 213.664 999.311 213.213" fill="#92A32B"/>
<path d="M996.251 219.313C986.345 214.682 975.777 211.826 965.349 208.628C964.32 208.311 965.035 206.797 966.055 207.111C976.482 210.309 987.05 213.165 996.956 217.796C997.935 218.253 997.234 219.771 996.251 219.313" fill="#92A32B"/>
<path d="M996.888 226.052C987.01 223.812 978.267 218.473 968.918 214.805C967.911 214.41 968.619 212.894 969.623 213.288C978.825 216.898 987.444 222.2 997.163 224.404C998.214 224.643 997.944 226.292 996.888 226.052Z" fill="#92A32B"/>
<path d="M991.376 230.194C981.549 225.956 971.674 221.826 961.799 217.695C960.801 217.277 961.507 215.761 962.505 216.178C972.38 220.309 982.254 224.439 992.081 228.678C993.076 229.106 992.371 230.622 991.376 230.194" fill="#92A32B"/>
<path d="M420.539 280.395L373.574 287.828C381.393 304.547 378.627 322.996 374.778 339.682C391.088 340.218 407.671 346.848 423.556 342.868C431.396 323.645 427.523 299.789 420.539 280.395Z" fill="#16B1B5"/>
<path d="M422.672 275.084L375.707 282.517C383.526 299.236 380.76 317.686 376.911 334.371C393.222 334.907 409.804 341.538 425.687 337.558C425.272 319.438 426.693 296.076 422.672 275.084" fill="#46F2F2"/>
<path d="M390.447 299.106C397.382 296.643 404.431 295.444 411.621 295.421C412.506 295.418 412.506 293.648 411.621 293.651C404.314 293.676 397.132 294.897 390.083 297.399C389.232 297.701 389.593 299.408 390.447 299.106Z" fill="#16B1B5"/>
<path d="M392.089 306.007C400.678 302.876 409.561 301.713 418.375 300.167C419.247 300.015 418.874 298.31 418.011 298.46C409.196 300.006 400.313 301.169 391.726 304.302C390.878 304.61 391.238 306.318 392.089 306.007" fill="#16B1B5"/>
<path d="M390.676 312.941C398.918 312.302 406.666 308.229 414.679 306.007C415.542 305.768 415.175 304.062 414.314 304.302C406.43 306.487 398.787 310.542 390.676 311.172C389.797 311.239 389.794 313.009 390.676 312.941" fill="#16B1B5"/>
<path d="M394.553 318.22C403.025 315.484 411.52 312.87 420.015 310.255C420.875 309.991 420.511 308.285 419.652 308.548C411.157 311.164 402.66 313.778 394.188 316.513C393.331 316.789 393.695 318.496 394.553 318.22" fill="#16B1B5"/>
<path d="M526.437 281.323L479.473 288.758C487.291 305.475 484.525 323.925 480.677 340.61C496.987 341.146 513.569 347.778 529.454 343.797C537.294 324.573 533.421 300.718 526.437 281.323Z" fill="#92A32B"/>
<path d="M528.574 276.014L481.609 283.447C489.427 300.165 486.661 318.616 482.813 335.301C499.124 335.837 515.706 342.469 531.59 338.488C539.431 319.264 535.558 295.409 528.574 276.014" fill="#BEE41B"/>
<path d="M493.754 297.203C502.767 294.742 511.924 293.542 521.266 293.518C522.415 293.514 522.415 291.745 521.266 291.748C511.771 291.772 502.441 292.993 493.281 295.497C492.178 295.798 492.647 297.506 493.754 297.203Z" fill="#92A32B"/>
<path d="M495.887 304.106C507.044 300.973 518.584 299.811 530.037 298.266C531.171 298.112 530.686 296.408 529.564 296.559C518.112 298.104 506.572 299.267 495.413 302.399C494.311 302.708 494.78 304.415 495.887 304.106Z" fill="#92A32B"/>
<path d="M494.052 311.039C504.763 310.399 514.83 306.328 525.239 304.106C526.36 303.865 525.884 302.159 524.765 302.399C514.523 304.585 504.591 308.64 494.052 309.269C492.913 309.336 492.907 311.107 494.052 311.039" fill="#92A32B"/>
<path d="M499.087 316.317C510.096 313.581 521.135 310.967 532.172 308.353C533.288 308.089 532.814 306.382 531.699 306.646C520.662 309.26 509.623 311.874 498.616 314.61C497.503 314.887 497.974 316.594 499.087 316.317Z" fill="#92A32B"/>
<path d="M364.459 443.349L323.898 445.473C329.231 462.44 322.557 482.188 329.421 499.474C340.665 498.113 355.496 498.975 366.432 495.202C367.267 479.562 369.573 457.845 364.459 443.349" fill="#D3B81A"/>
<path d="M367.659 439.101L327.098 441.225C332.43 458.192 325.756 477.94 332.621 495.227C343.865 493.865 358.696 494.727 369.632 490.955C370.467 475.313 372.772 453.597 367.659 439.101Z" fill="#FDE427"/>
<path d="M335.364 458.064C337.729 459.065 341.124 458.026 343.515 457.587C347.166 456.915 350.798 455.964 354.488 455.529C355.613 455.397 355.626 453.626 354.488 453.76C351.227 454.143 348.013 454.909 344.796 455.544C343.134 455.872 341.468 456.18 339.792 456.421C338.825 456.559 337.209 456.936 336.26 456.535C335.217 456.093 334.31 457.616 335.364 458.064Z" fill="#D3B81A"/>
<path d="M333.141 464.554C343.195 463.408 352.997 460.838 362.728 458.152C363.831 457.847 363.361 456.139 362.254 456.446C352.685 459.086 343.03 461.658 333.141 462.786C332.016 462.914 332.004 464.685 333.141 464.554Z" fill="#D3B81A"/>
<path d="M336.345 469.333C341.859 468.597 347.176 466.803 352.59 465.585C353.709 465.333 353.235 463.627 352.117 463.878C346.866 465.06 341.692 466.85 336.345 467.563C335.225 467.713 335.212 469.485 336.345 469.333Z" fill="#D3B81A"/>
<path d="M337.711 472.081C338.407 473.186 340.056 473.05 341.182 472.973C343.526 472.812 345.86 472.285 348.145 471.768C353.058 470.654 357.944 469.287 362.729 467.709C363.812 467.352 363.348 465.642 362.255 466.002C358.237 467.329 354.146 468.467 350.04 469.494C347.713 470.078 345.365 470.608 342.993 470.987C342.456 471.071 339.5 471.589 339.248 471.187C338.64 470.223 337.101 471.11 337.711 472.081" fill="#D3B81A"/>
<path d="M339.313 473.842C338.765 474.698 338.236 474.785 338.124 475.881C338.076 476.36 338.565 476.769 339.014 476.766C344.943 476.726 350.796 475.701 356.325 473.55C357.382 473.138 356.923 471.425 355.853 471.843C350.463 473.94 344.796 474.958 339.014 474.997C339.31 475.292 339.607 475.586 339.903 475.881C339.928 475.635 340.697 474.972 340.848 474.735C341.467 473.77 339.926 472.882 339.313 473.842" fill="#D3B81A"/>
<path d="M344.967 478.77C347.922 480.735 352.212 479.975 355.555 479.952C356.701 479.945 356.702 478.174 355.555 478.182C352.567 478.203 348.493 478.99 345.865 477.242C344.908 476.604 344.02 478.139 344.967 478.77Z" fill="#D3B81A"/>
<path d="M1148.32 359.266L1107.76 361.389C1113.1 378.357 1106.42 398.105 1113.29 415.391C1124.53 414.03 1139.36 414.892 1150.3 411.119C1151.13 395.478 1153.44 373.762 1148.32 359.266Z" fill="#D3B81A"/>
<path d="M1151.53 355.017L1110.96 357.142C1116.3 374.108 1109.62 393.857 1116.49 411.144C1127.73 409.782 1142.56 410.644 1153.5 406.871C1154.33 391.229 1156.64 369.514 1151.53 355.017Z" fill="#FDE427"/>
<path d="M1119.23 373.979C1121.6 374.982 1124.99 373.943 1127.38 373.503C1131.03 372.832 1134.66 371.881 1138.35 371.446C1139.48 371.313 1139.49 369.543 1138.35 369.676C1135.09 370.06 1131.88 370.824 1128.66 371.46C1127 371.789 1125.33 372.097 1123.66 372.338C1122.69 372.476 1121.08 372.853 1120.13 372.451C1119.08 372.01 1118.18 373.533 1119.23 373.979Z" fill="#D3B81A"/>
<path d="M1117.01 380.472C1127.06 379.325 1136.86 376.754 1146.6 374.069C1147.7 373.764 1147.23 372.056 1146.12 372.362C1136.55 375.003 1126.9 377.573 1117.01 378.701C1115.88 378.831 1115.87 380.602 1117.01 380.472" fill="#D3B81A"/>
<path d="M1120.21 385.25C1125.72 384.514 1131.04 382.72 1136.46 381.502C1137.58 381.251 1137.1 379.544 1135.98 379.794C1130.73 380.976 1125.56 382.766 1120.21 383.48C1119.09 383.629 1119.08 385.401 1120.21 385.25Z" fill="#D3B81A"/>
<path d="M1121.58 387.998C1122.28 389.103 1123.92 388.967 1125.05 388.89C1127.39 388.729 1129.73 388.202 1132.01 387.683C1136.93 386.57 1141.81 385.204 1146.6 383.625C1147.68 383.269 1147.21 381.559 1146.12 381.919C1142.1 383.244 1138.01 384.383 1133.91 385.411C1131.58 385.993 1129.23 386.524 1126.86 386.902C1126.33 386.988 1123.37 387.505 1123.11 387.104C1122.51 386.14 1120.97 387.027 1121.58 387.998" fill="#D3B81A"/>
<path d="M1123.18 389.759C1122.63 390.614 1122.1 390.701 1121.99 391.798C1121.94 392.277 1122.43 392.687 1122.88 392.683C1128.81 392.643 1134.66 391.618 1140.19 389.465C1141.25 389.055 1140.79 387.342 1139.72 387.76C1134.33 389.857 1128.66 390.874 1122.88 390.914C1123.17 391.209 1123.47 391.503 1123.77 391.798C1123.79 391.552 1124.56 390.889 1124.71 390.652C1125.33 389.687 1123.79 388.799 1123.18 389.759Z" fill="#D3B81A"/>
<path d="M1128.83 394.685C1131.79 396.652 1136.08 395.892 1139.42 395.869C1140.56 395.86 1140.57 394.09 1139.42 394.099C1136.43 394.119 1132.36 394.905 1129.73 393.157C1128.77 392.521 1127.88 394.055 1128.83 394.685Z" fill="#D3B81A"/>
<path d="M723.983 381.018L683.422 383.142C688.756 400.109 682.082 419.858 688.945 437.144C700.189 435.783 715.02 436.644 725.957 432.872C726.793 417.23 729.096 395.515 723.983 381.018Z" fill="#D3B81A"/>
<path d="M727.187 376.77L686.625 378.894C691.959 395.86 685.285 415.61 692.148 432.896C703.392 431.534 718.224 432.396 729.16 428.624C729.994 412.983 732.299 391.267 727.187 376.77Z" fill="#FDE427"/>
<path d="M694.889 395.732C697.256 396.734 700.651 395.695 703.042 395.256C706.694 394.584 710.323 393.632 714.015 393.198C715.14 393.065 715.153 391.294 714.015 391.428C710.752 391.813 707.54 392.577 704.321 393.213C702.66 393.542 700.995 393.85 699.318 394.089C698.351 394.227 696.736 394.605 695.787 394.203C694.745 393.762 693.838 395.286 694.889 395.732" fill="#D3B81A"/>
<path d="M692.67 402.224C702.721 401.077 712.524 398.507 722.254 395.822C723.358 395.516 722.889 393.809 721.782 394.115C712.213 396.756 702.557 399.326 692.67 400.454C691.543 400.582 691.531 402.353 692.67 402.224Z" fill="#D3B81A"/>
<path d="M695.871 407.003C701.385 406.265 706.702 404.472 712.117 403.254C713.235 403.002 712.761 401.297 711.644 401.548C706.394 402.728 701.22 404.518 695.871 405.232C694.753 405.381 694.739 407.154 695.871 407.003Z" fill="#D3B81A"/>
<path d="M697.238 409.749C697.935 410.854 699.582 410.719 700.708 410.642C703.055 410.481 705.386 409.955 707.673 409.436C712.586 408.323 717.473 406.956 722.255 405.378C723.34 405.02 722.875 403.311 721.784 403.671C717.763 404.997 713.674 406.136 709.568 407.164C707.239 407.746 704.892 408.277 702.52 408.655C701.985 408.741 699.028 409.259 698.775 408.856C698.168 407.893 696.627 408.78 697.238 409.749" fill="#D3B81A"/>
<path d="M698.837 411.511C698.291 412.367 697.761 412.454 697.648 413.55C697.599 414.029 698.091 414.439 698.538 414.435C704.469 414.396 710.32 413.37 715.85 411.218C716.906 410.807 716.448 409.095 715.377 409.511C709.987 411.61 704.321 412.627 698.538 412.665C698.835 412.96 699.131 413.255 699.428 413.55C699.453 413.304 700.22 412.642 700.373 412.404C700.992 411.438 699.451 410.551 698.837 411.511" fill="#D3B81A"/>
<path d="M704.495 416.438C707.452 418.404 711.741 417.643 715.083 417.62C716.229 417.613 716.23 415.843 715.083 415.852C712.096 415.871 708.021 416.658 705.392 414.91C704.436 414.273 703.547 415.807 704.495 416.438" fill="#D3B81A"/>
<path d="M461.702 450.691C456.309 436.143 451.499 421.132 447.755 405.501C438.846 416.768 405.816 418.324 405.816 418.324C412.968 433.85 419.782 453.79 419.789 470.48C433.918 465.514 448.493 458.154 461.702 450.691" fill="#AA3C6E"/>
<path d="M462.674 446.041C457.283 431.494 452.473 416.483 448.727 400.852C439.818 412.119 406.789 413.674 406.789 413.674C413.939 429.2 420.755 449.141 420.763 465.832C434.89 460.865 449.466 453.505 462.674 446.041" fill="#FF5593"/>
<path d="M423.863 424.963C427.153 426.164 431.012 424.742 434.072 423.507C437.811 421.998 441.342 420.007 444.778 417.918C445.756 417.324 444.866 415.791 443.883 416.387C440.919 418.189 437.891 419.884 434.728 421.315C431.754 422.66 427.627 424.457 424.339 423.259C423.259 422.863 422.795 424.574 423.863 424.963" fill="#AA3C6E"/>
<path d="M426.456 432.063C430.31 430.387 434.458 429.472 438.344 427.875C439.389 427.448 438.948 425.731 437.891 426.165C433.855 427.822 429.564 428.793 425.56 430.533C424.512 430.988 425.416 432.515 426.456 432.063Z" fill="#AA3C6E"/>
<path d="M425.798 434.339C430.387 436.259 435.705 433.492 439.95 431.848C441.006 431.438 440.562 429.723 439.496 430.136C435.569 431.657 430.513 434.407 426.274 432.634C425.217 432.192 424.756 433.904 425.798 434.339Z" fill="#AA3C6E"/>
<path d="M423.884 443.171C430.974 439.054 439.022 437.015 446.581 433.951C447.628 433.527 447.188 431.809 446.127 432.239C438.424 435.362 430.217 437.443 422.99 441.641C422 442.216 422.891 443.748 423.884 443.171" fill="#AA3C6E"/>
<path d="M428.771 447.961C433.705 446.066 438.644 444.186 443.409 441.889C444.44 441.391 443.541 439.863 442.513 440.358C437.893 442.586 433.103 444.412 428.316 446.249C427.258 446.656 427.701 448.371 428.771 447.961Z" fill="#AA3C6E"/>
<path d="M430.597 451.057C432.359 451.809 434.816 450.357 436.383 449.656C439.121 448.43 441.78 447 444.363 445.482C445.35 444.902 444.458 443.371 443.469 443.952C441.382 445.178 439.242 446.316 437.069 447.382C435.914 447.946 434.744 448.481 433.543 448.939C433.13 449.096 431.812 449.664 431.494 449.528C430.453 449.083 429.544 450.607 430.597 451.057" fill="#AA3C6E"/>
<path d="M427.688 324.437C428.378 315.015 427.265 305.219 425.106 295.849C424.696 288.851 423.966 281.845 422.671 275.084L419.738 275.548C427.946 273.647 436.24 270.596 440.071 265.752C443.816 281.382 448.627 296.393 454.018 310.941C445.637 315.676 436.707 320.369 427.688 324.437V324.437ZM398.302 278.941C398.245 278.818 398.189 278.696 398.133 278.574C398.133 278.574 400.016 278.486 403.005 278.197L398.302 278.941Z" fill="#73CDC0"/>
<path d="M425.6 325.366C425.617 316.057 425.697 305.961 425.105 295.849C427.265 305.219 428.377 315.015 427.687 324.437C426.992 324.75 426.296 325.061 425.6 325.366" fill="#0A9195"/>
<path d="M412.106 330.731C412.103 325.191 411.351 319.294 410.085 313.319C413.394 312.293 416.704 311.274 420.014 310.255C420.812 310.01 420.555 308.521 419.827 308.521C419.771 308.521 419.713 308.529 419.651 308.548C416.337 309.569 413.024 310.589 409.711 311.615C409.43 310.379 409.128 309.141 408.807 307.903C410.756 307.211 412.707 306.554 414.677 306.007C415.482 305.784 415.215 304.279 414.472 304.279C414.421 304.279 414.367 304.286 414.311 304.302C412.317 304.854 410.338 305.527 408.363 306.233C407.987 304.853 407.588 303.476 407.171 302.103C410.899 301.407 414.641 300.821 418.373 300.167C419.206 300.021 418.9 298.45 418.115 298.45C418.08 298.45 418.045 298.454 418.008 298.46C414.225 299.124 410.43 299.716 406.65 300.425C406.156 298.864 405.638 297.31 405.1 295.77C407.26 295.544 409.433 295.428 411.618 295.421C412.502 295.417 412.503 293.651 411.621 293.651C411.62 293.651 411.62 293.651 411.618 293.651C409.23 293.658 406.856 293.795 404.494 294.061C402.584 288.765 400.46 283.654 398.301 278.941L403.004 278.197C407.148 277.797 413.417 277.013 419.737 275.548L422.67 275.084C423.965 281.845 424.695 288.851 425.105 295.849C425.697 305.961 425.616 316.057 425.599 325.366C421.095 327.345 416.578 329.159 412.106 330.731" fill="#20C6C8"/>
<path d="M405.102 295.77C404.903 295.198 404.701 294.629 404.496 294.061C406.858 293.795 409.232 293.658 411.621 293.651C411.622 293.651 411.622 293.651 411.623 293.651C412.505 293.651 412.504 295.417 411.621 295.421C409.435 295.428 407.263 295.544 405.102 295.77Z" fill="#0A9195"/>
<path d="M407.174 302.103C407.002 301.542 406.83 300.983 406.652 300.425C410.432 299.716 414.227 299.124 418.01 298.46C418.047 298.454 418.082 298.45 418.117 298.45C418.902 298.45 419.208 300.021 418.375 300.167C414.643 300.821 410.901 301.407 407.174 302.103Z" fill="#0A9195"/>
<path d="M408.807 307.903C408.663 307.347 408.514 306.788 408.363 306.233C410.338 305.527 412.317 304.854 414.311 304.302C414.367 304.286 414.421 304.279 414.472 304.279C415.215 304.279 415.482 305.784 414.676 306.007C412.707 306.554 410.756 307.211 408.807 307.903" fill="#0A9195"/>
<path d="M410.085 313.319C409.965 312.752 409.84 312.183 409.711 311.615C413.024 310.589 416.338 309.569 419.651 308.548C419.713 308.529 419.771 308.521 419.827 308.521C420.555 308.521 420.812 310.01 420.014 310.255C416.704 311.274 413.394 312.293 410.085 313.319" fill="#0A9195"/>
<path d="M454.992 306.291C449.601 291.744 444.791 276.733 441.047 261.102C410.55 270.256 398.133 278.574 398.133 278.574C405.283 294.1 413.074 309.391 413.08 326.081C427.209 321.113 441.784 313.754 454.992 306.291" fill="#FF5593"/>
<path d="M416.184 285.213C419.474 286.414 423.333 284.992 426.392 283.757C430.13 282.247 433.663 280.256 437.099 278.168C438.075 277.573 437.185 276.04 436.204 276.637C433.24 278.439 430.212 280.134 427.048 281.565C424.073 282.91 419.946 284.707 416.66 283.508C415.58 283.113 415.114 284.823 416.184 285.213" fill="#AA3C6E"/>
<path d="M418.776 292.313C422.631 290.637 426.778 289.722 430.666 288.125C431.709 287.696 431.27 285.98 430.211 286.414C426.176 288.072 421.885 289.043 417.882 290.783C416.832 291.238 417.735 292.765 418.776 292.313" fill="#AA3C6E"/>
<path d="M418.118 294.589C422.709 296.509 428.027 293.741 432.271 292.097C433.327 291.688 432.884 289.971 431.816 290.385C427.891 291.907 422.834 294.657 418.595 292.884C417.536 292.441 417.077 294.154 418.118 294.589Z" fill="#AA3C6E"/>
<path d="M416.201 303.421C423.291 299.303 431.339 297.265 438.897 294.2C439.944 293.776 439.503 292.059 438.444 292.49C430.74 295.612 422.533 297.693 415.305 301.891C414.317 302.465 415.208 303.997 416.201 303.421" fill="#AA3C6E"/>
<path d="M421.09 308.21C426.026 306.316 430.965 304.435 435.729 302.138C436.761 301.641 435.861 300.113 434.834 300.608C430.212 302.836 425.424 304.662 420.636 306.499C419.579 306.906 420.021 308.62 421.09 308.21" fill="#AA3C6E"/>
<path d="M422.914 311.307C424.675 312.058 427.131 310.606 428.7 309.904C431.436 308.679 434.097 307.25 436.68 305.732C437.667 305.153 436.774 303.62 435.785 304.201C433.697 305.427 431.558 306.566 429.383 307.632C428.231 308.197 427.06 308.731 425.859 309.188C425.446 309.346 424.128 309.913 423.808 309.778C422.768 309.332 421.861 310.857 422.914 311.307" fill="#AA3C6E"/>
<path d="M588.813 231.447C587.331 216.011 586.528 200.277 586.917 184.213C575.413 192.844 543.078 185.965 543.078 185.965C546.01 202.791 547.486 223.802 543.214 239.941C558.149 238.726 574.129 235.309 588.813 231.447" fill="#AA3C6E"/>
<path d="M590.947 227.197C589.465 211.762 588.663 196.029 589.049 179.965C577.547 188.595 545.211 181.716 545.211 181.716C548.144 198.543 549.62 219.553 545.348 235.693C560.283 234.477 576.263 231.061 590.947 227.197Z" fill="#FF5593"/>
<path d="M558.825 196.966C561.698 198.961 565.795 198.566 569.07 198.148C573.071 197.638 576.996 196.609 580.855 195.462C581.952 195.137 581.485 193.428 580.383 193.755C577.054 194.745 573.692 195.615 570.265 196.196C567.044 196.742 562.594 197.431 559.723 195.438C558.78 194.782 557.893 196.318 558.825 196.966" fill="#AA3C6E"/>
<path d="M559.508 204.487C563.666 203.846 567.91 204.014 572.08 203.457C573.199 203.307 573.213 201.536 572.08 201.687C567.751 202.266 563.352 202.114 559.035 202.781C557.905 202.955 558.387 204.661 559.508 204.487" fill="#AA3C6E"/>
<path d="M558.291 206.522C562.236 209.544 568.089 208.218 572.613 207.705C573.741 207.577 573.753 205.806 572.613 205.935C568.428 206.409 562.832 207.785 559.189 204.995C558.28 204.298 557.395 205.836 558.291 206.522Z" fill="#AA3C6E"/>
<path d="M554.172 214.575C562.084 212.393 570.389 212.466 578.482 211.421C579.603 211.277 579.618 209.505 578.482 209.652C570.233 210.717 561.763 210.645 553.699 212.868C552.596 213.173 553.065 214.88 554.172 214.575" fill="#AA3C6E"/>
<path d="M557.674 220.447C562.931 219.868 568.189 219.303 573.385 218.293C574.511 218.073 574.032 216.367 572.912 216.586C567.872 217.567 562.774 218.116 557.674 218.677C556.547 218.801 556.535 220.572 557.674 220.447" fill="#AA3C6E"/>
<path d="M558.646 223.904C560.156 225.079 562.903 224.298 564.599 224.018C567.559 223.528 570.5 222.82 573.385 222.009C574.487 221.698 574.018 219.991 572.912 220.302C570.58 220.958 568.219 221.516 565.844 221.993C564.584 222.247 563.315 222.467 562.037 222.605C561.597 222.652 560.178 222.866 559.904 222.653C559.012 221.959 557.743 223.202 558.646 223.904" fill="#AA3C6E"/>
<path d="M1053.67 320.709C1056.07 305.388 1059.2 289.945 1063.57 274.476C1050.28 280.009 1020.66 265.385 1020.66 265.385C1019.32 282.411 1015.53 303.133 1007.38 317.719C1022.15 320.217 1038.48 320.838 1053.67 320.709Z" fill="#16B1B5"/>
<path d="M1056.8 317.118C1059.2 301.798 1062.33 286.356 1066.7 270.885C1049.16 266.789 1023.78 261.795 1023.78 261.795C1022.44 278.821 1018.65 299.542 1010.5 314.129C1025.27 316.625 1041.61 317.248 1056.8 317.118Z" fill="#46F2F2"/>
<path d="M1033.19 279.92C1035.47 282.561 1039.54 283.186 1042.82 283.587C1046.82 284.078 1050.88 284.047 1054.9 283.885C1056.05 283.838 1056.02 282.069 1054.87 282.115C1051.4 282.254 1047.93 282.27 1044.46 281.989C1041.21 281.726 1036.72 281.299 1034.43 278.66C1033.68 277.793 1032.44 279.062 1033.19 279.92" fill="#16B1B5"/>
<path d="M1031.98 287.377C1036.17 287.778 1040.24 288.986 1044.42 289.472C1045.54 289.604 1045.99 287.891 1044.86 287.758C1040.52 287.253 1036.3 286.024 1031.95 285.607C1030.81 285.498 1030.85 287.269 1031.98 287.377" fill="#16B1B5"/>
<path d="M1030.3 289.049C1033.37 292.948 1039.37 293.102 1043.88 293.719C1045 293.874 1045.46 292.159 1044.32 292.005C1040.15 291.434 1034.38 291.389 1031.55 287.789C1030.84 286.89 1029.6 288.164 1030.3 289.049Z" fill="#16B1B5"/>
<path d="M1024.3 295.838C1032.51 295.671 1040.54 297.784 1048.64 298.765C1049.76 298.9 1050.22 297.187 1049.08 297.051C1040.82 296.051 1032.64 293.898 1024.27 294.068C1023.12 294.091 1023.16 295.862 1024.3 295.838" fill="#16B1B5"/>
<path d="M1026.23 302.389C1031.47 303.122 1036.71 303.869 1041.99 304.167C1043.14 304.231 1043.1 302.462 1041.96 302.397C1036.83 302.107 1031.76 301.384 1026.67 300.674C1025.55 300.516 1025.1 302.229 1026.23 302.389" fill="#16B1B5"/>
<path d="M1026.32 305.977C1027.49 307.487 1030.34 307.407 1032.06 307.552C1035.05 307.806 1038.07 307.844 1041.07 307.767C1042.21 307.738 1042.18 305.969 1041.03 305.998C1038.61 306.059 1036.18 306.019 1033.77 305.897C1032.48 305.833 1031.2 305.733 1029.92 305.551C1029.48 305.49 1028.06 305.348 1027.85 305.075C1027.15 304.183 1025.61 305.075 1026.32 305.977" fill="#16B1B5"/>
<path d="M704.736 336.664C704.708 336.664 704.793 336.56 704.991 336.352L705.077 336.337L705.061 336.434C704.869 336.586 704.761 336.664 704.736 336.664Z" fill="#73CDC0"/>
<path d="M759.318 341.357C751.93 341.357 744.067 339.926 736.222 338.496C728.376 337.065 720.545 335.635 713.214 335.635C710.419 335.635 707.697 335.842 705.074 336.337C710.283 308.044 710.163 277.302 708.688 248.754C707.312 222.139 708.272 186.55 699.262 161.418L712.672 161.696C712.992 161.625 713.325 161.586 713.666 161.586C713.791 161.586 713.917 161.592 714.045 161.602C714.319 161.623 714.583 161.673 714.839 161.741L732.886 162.114C740.335 161.442 748.088 161.322 755.816 161.322C757.961 161.322 760.105 161.332 762.239 161.342C764.374 161.35 766.5 161.36 768.61 161.36C771.039 161.36 773.446 161.348 775.821 161.309C782.224 161.205 788.754 161.071 795.312 161.071C800.664 161.071 806.035 161.16 811.371 161.426C811.488 161.419 811.605 161.414 811.725 161.414C811.831 161.414 811.938 161.418 812.047 161.426C812.204 161.439 812.36 161.46 812.514 161.489C817.247 161.748 821.949 162.148 826.582 162.759C825.771 189.05 825.473 215.476 823.324 241.781C821.909 259.097 821.452 276.811 819.04 294.016C817.139 307.582 811.942 321.292 811.462 334.889C795.891 337.825 777.732 340.789 761.07 341.33C760.489 341.348 759.905 341.357 759.318 341.357" fill="#73CDC0"/>
<path d="M718.459 328.247L718.469 328.151L718.384 328.172C718.046 328.587 718.072 328.611 718.459 328.247Z" fill="white"/>
<path d="M828.606 224.347C828.602 197.954 826.738 171.592 825.401 145.323C808.651 144.478 791.247 146.367 774.689 147.981C760.811 149.334 745.776 149.872 731.962 152.255L698.391 154.28C709.425 178.599 711.375 214.15 714.919 240.565C718.72 268.899 721.352 299.53 718.471 328.151C735.08 323.597 756.808 330.634 774.689 328.599C791.252 326.713 809.109 322.292 824.387 318.106C823.754 304.516 827.815 290.431 828.603 276.756C829.601 259.413 828.609 241.721 828.606 224.347" fill="white"/>
<path d="M735.769 192.022C740.364 193.31 745.514 191.752 749.899 190.364C755.664 188.539 761.174 186.142 766.98 184.406C781.12 180.181 795.671 177.128 810.51 177.797C812.15 177.872 812.143 175.341 810.51 175.267C796.407 174.63 782.559 177.327 769.058 181.163C763.248 182.814 757.713 184.891 752.056 186.955C747.425 188.643 741.414 190.974 736.446 189.583C734.864 189.139 734.193 191.581 735.769 192.022Z" fill="#D7E0E0"/>
<path d="M735.954 205.273C758.723 192.2 785.235 184.242 811.313 181.365C812.925 181.187 812.942 178.656 811.313 178.835C784.772 181.762 757.854 189.777 734.669 203.087C733.249 203.902 734.53 206.09 735.954 205.273" fill="#D7E0E0"/>
<path d="M729.552 212.408C751.211 202.71 775.534 202.423 798.05 195.59C799.614 195.115 798.946 192.672 797.374 193.149C774.62 200.054 750.165 200.421 728.268 210.222C726.775 210.891 728.069 213.07 729.552 212.408" fill="#D7E0E0"/>
<path d="M740.447 215.21C760.49 212.529 780.536 209.829 800.449 206.292C802.062 206.006 801.375 203.567 799.771 203.851C779.859 207.389 759.814 210.089 739.771 212.771C738.151 212.987 738.844 215.425 740.447 215.21" fill="#D7E0E0"/>
<path d="M738.971 227.697C742.22 228.531 745.709 228.007 748.961 227.468C754.075 226.621 759.097 225.191 764.066 223.747C774.011 220.86 783.856 217.153 794.05 215.21C795.658 214.904 794.976 212.465 793.373 212.77C783.852 214.584 774.626 217.966 765.358 220.729C760.442 222.194 755.494 223.588 750.467 224.621C747.054 225.321 743.101 226.143 739.648 225.256C738.059 224.848 737.385 227.289 738.971 227.697" fill="#D7E0E0"/>
<path d="M744.111 237.552C757.358 238.492 771.051 234.983 783.65 231.264C785.218 230.8 784.55 228.358 782.973 228.823C770.569 232.485 757.153 235.946 744.111 235.021C742.473 234.905 742.484 237.437 744.111 237.552" fill="#D7E0E0"/>
<path d="M751.21 246.992C755.644 251.577 764.905 248.971 770.16 247.659C777.333 245.868 784.513 243.312 791.152 240.055C792.623 239.333 791.334 237.15 789.87 237.87C783.95 240.773 777.608 242.979 771.261 244.748C767.692 245.743 764.034 246.555 760.329 246.813C757.959 246.977 754.793 247.047 753.009 245.203C751.869 244.024 750.075 245.816 751.21 246.992" fill="#D7E0E0"/>
<path d="M765.373 260.694C771.624 262.571 778.312 261.807 784.666 260.925C792.196 259.883 799.68 258.129 807.311 258.064C808.952 258.051 808.953 255.519 807.311 255.534C800.534 255.592 793.831 256.952 787.161 258.009C780.308 259.097 772.836 260.291 766.049 258.254C764.474 257.782 763.806 260.225 765.373 260.694" fill="#D7E0E0"/>
<path d="M738.046 278.532C760.197 272.022 784.079 275.215 806.049 267.829C807.595 267.31 806.931 264.865 805.371 265.39C783.41 272.773 759.524 269.58 737.371 276.092C735.801 276.553 736.47 278.996 738.046 278.532Z" fill="#D7E0E0"/>
<path d="M748.111 294.63C765.772 293.366 781.566 283.237 799.312 282.145C800.941 282.045 800.951 279.513 799.312 279.613C790.501 280.156 782.014 282.813 773.671 285.513C765.371 288.198 756.888 291.471 748.111 292.099C746.485 292.216 746.473 294.748 748.111 294.63Z" fill="#D7E0E0"/>
<path d="M755.212 296.93C754.138 297.824 752.953 297.816 752.484 299.271C752.256 299.983 752.896 300.982 753.711 300.873C766.605 299.165 779.774 300.663 792.451 297.261C794.031 296.835 793.361 294.395 791.774 294.82C779.325 298.162 766.377 296.664 753.711 298.343C754.12 298.876 754.529 299.41 754.937 299.945C754.997 299.759 756.705 298.974 757.01 298.719C758.269 297.67 756.46 295.889 755.212 296.93" fill="#D7E0E0"/>
<path d="M774.174 304.395C779.384 306.43 785.594 304.373 790.851 303.504C792.466 303.236 791.778 300.798 790.174 301.064C785.343 301.863 779.626 303.822 774.849 301.956C773.322 301.358 772.666 303.806 774.174 304.395Z" fill="#D7E0E0"/>
<path d="M717.718 157.823C717.718 160.337 715.668 162.377 713.139 162.377C710.611 162.377 708.562 160.337 708.562 157.823C708.562 155.307 710.611 153.268 713.139 153.268C715.668 153.268 717.718 155.307 717.718 157.823Z" fill="#FF1717"/>
<path d="M815.383 149.726C815.383 152.24 813.332 154.28 810.805 154.28C808.276 154.28 806.227 152.24 806.227 149.726C806.227 147.209 808.276 145.17 810.805 145.17C813.332 145.17 815.383 147.209 815.383 149.726Z" fill="#579334"/>
<path d="M928.632 321.024C927.148 305.589 926.347 289.855 926.733 273.79C915.229 282.422 882.895 275.542 882.895 275.542C885.828 292.37 887.304 313.38 883.031 329.52C897.965 328.304 913.946 324.888 928.632 321.024" fill="#AA3C6E"/>
<path d="M930.765 316.776C929.281 301.341 928.479 285.606 928.867 269.542C917.361 278.174 885.027 271.295 885.027 271.295C887.96 288.121 889.437 309.132 885.163 325.272C900.098 324.056 916.079 320.64 930.765 316.776Z" fill="#FF5593"/>
<path d="M898.642 286.544C901.516 288.54 905.612 288.144 908.887 287.727C912.888 287.215 916.814 286.188 920.673 285.04C921.769 284.714 921.301 283.006 920.199 283.333C916.872 284.324 913.509 285.193 910.083 285.774C906.863 286.319 902.411 287.01 899.54 285.015C898.597 284.36 897.708 285.896 898.642 286.544" fill="#AA3C6E"/>
<path d="M899.329 294.066C903.485 293.424 907.732 293.593 911.899 293.036C913.018 292.886 913.034 291.115 911.899 291.266C907.573 291.845 903.173 291.693 898.856 292.359C897.725 292.533 898.207 294.239 899.329 294.066" fill="#AA3C6E"/>
<path d="M898.107 296.1C902.054 299.123 907.904 297.795 912.43 297.284C913.556 297.156 913.568 295.385 912.43 295.513C908.243 295.988 902.649 297.363 899.005 294.572C898.096 293.876 897.212 295.415 898.107 296.1" fill="#AA3C6E"/>
<path d="M893.993 304.154C901.904 301.971 910.209 302.045 918.303 301C919.425 300.855 919.437 299.083 918.303 299.229C910.053 300.294 901.584 300.223 893.52 302.447C892.416 302.752 892.885 304.459 893.993 304.154Z" fill="#AA3C6E"/>
<path d="M897.492 310.026C902.748 309.447 908.006 308.881 913.202 307.87C914.327 307.651 913.849 305.946 912.729 306.163C907.689 307.145 902.591 307.694 897.492 308.256C896.363 308.379 896.351 310.151 897.492 310.026" fill="#AA3C6E"/>
<path d="M898.463 313.482C899.973 314.657 902.72 313.876 904.417 313.596C907.376 313.106 910.315 312.399 913.202 311.588C914.305 311.277 913.836 309.569 912.73 309.879C910.398 310.536 908.036 311.093 905.659 311.572C904.4 311.826 903.132 312.045 901.854 312.182C901.413 312.23 899.994 312.445 899.721 312.231C898.828 311.537 897.559 312.781 898.463 313.482Z" fill="#AA3C6E"/>
<path d="M350.92 418.694C349.438 403.259 348.634 387.525 349.022 371.46C337.518 380.093 305.184 373.212 305.184 373.212C308.117 390.04 309.593 411.05 305.32 427.191C320.254 425.974 336.234 422.557 350.92 418.694Z" fill="#AA3C6E"/>
<path d="M353.057 414.446C351.573 399.011 350.771 383.276 351.16 367.212C339.655 375.844 307.32 368.964 307.32 368.964C310.253 385.792 311.73 406.802 307.458 422.942C322.391 421.726 338.371 418.309 353.057 414.446Z" fill="#FF5593"/>
<path d="M320.935 384.214C323.809 386.21 327.904 385.814 331.179 385.396C335.181 384.885 339.107 383.857 342.964 382.71C344.061 382.384 343.594 380.675 342.492 381.003C339.164 381.993 335.802 382.864 332.376 383.444C329.155 383.99 324.703 384.679 321.833 382.686C320.889 382.031 320.002 383.566 320.935 384.214" fill="#AA3C6E"/>
<path d="M321.619 391.736C325.775 391.094 330.02 391.263 334.189 390.706C335.309 390.556 335.323 388.784 334.189 388.936C329.861 389.514 325.463 389.363 321.145 390.029C320.015 390.204 320.496 391.909 321.619 391.736" fill="#AA3C6E"/>
<path d="M320.4 393.77C324.346 396.792 330.198 395.465 334.723 394.954C335.849 394.825 335.863 393.054 334.723 393.184C330.537 393.658 324.941 395.032 321.297 392.242C320.388 391.546 319.505 393.085 320.4 393.77Z" fill="#AA3C6E"/>
<path d="M316.281 401.824C324.193 399.641 332.497 399.714 340.591 398.67C341.713 398.525 341.728 396.754 340.591 396.899C332.342 397.964 323.873 397.893 315.809 400.117C314.706 400.422 315.174 402.13 316.281 401.824" fill="#AA3C6E"/>
<path d="M319.784 407.695C325.041 407.116 330.3 406.552 335.495 405.54C336.62 405.321 336.143 403.615 335.021 403.834C329.983 404.815 324.884 405.363 319.784 405.925C318.656 406.049 318.644 407.821 319.784 407.695" fill="#AA3C6E"/>
<path d="M320.756 411.153C322.265 412.327 325.013 411.547 326.709 411.265C329.669 410.776 332.608 410.069 335.495 409.257C336.597 408.947 336.128 407.239 335.021 407.549C332.688 408.206 330.329 408.763 327.954 409.242C326.694 409.496 325.425 409.714 324.146 409.852C323.706 409.899 322.287 410.115 322.013 409.902C321.122 409.208 319.852 410.451 320.756 411.153" fill="#AA3C6E"/>
<path d="M750.927 586.85C751.426 594.029 745.983 599.847 738.77 599.847H697.841C690.628 599.847 685.51 594.029 686.412 586.85L696.755 504.54C697.655 497.361 702.391 491.543 707.328 491.543H735.346C740.282 491.543 744.69 497.361 745.191 504.54L750.927 586.85" fill="#3D3D3D"/>
<path d="M739.79 584.576C740.19 590.188 735.842 594.736 730.081 594.736H697.39C691.63 594.736 687.542 590.188 688.262 584.576L696.524 520.242C697.243 514.632 701.025 510.083 704.969 510.083H727.345C731.289 510.083 734.81 514.632 735.209 520.242L739.79 584.576" fill="#707070"/>
<path d="M714.849 547.87C703.846 547.87 694.895 556.777 694.895 567.726C694.895 578.673 703.846 587.581 714.849 587.581C725.854 587.581 734.804 578.673 734.804 567.726C734.804 556.777 725.854 547.87 714.849 547.87ZM714.849 589.176C702.96 589.176 693.289 579.553 693.289 567.726C693.289 555.897 702.96 546.274 714.849 546.274C726.738 546.274 736.409 555.897 736.409 567.726C736.409 579.553 726.738 589.176 714.849 589.176Z" fill="#3D3D3D"/>
<path d="M714.851 551.267C705.731 551.267 698.309 558.648 698.309 567.725C698.309 576.801 705.731 584.182 714.851 584.182C723.972 584.182 731.393 576.801 731.393 567.725C731.393 558.648 723.972 551.267 714.851 551.267Z" fill="#3D3D3D"/>
<path d="M714.851 517.86C708.629 517.86 703.568 522.896 703.568 529.088C703.568 535.279 708.629 540.316 714.851 540.316C721.075 540.316 726.136 535.279 726.136 529.088C726.136 522.896 721.075 517.86 714.851 517.86ZM714.851 541.218C708.129 541.218 702.66 535.777 702.66 529.088C702.66 522.399 708.129 516.958 714.851 516.958C721.574 516.958 727.044 522.399 727.044 529.088C727.044 535.777 721.574 541.218 714.851 541.218Z" fill="#3D3D3D"/>
<path d="M714.85 519.781C709.693 519.781 705.496 523.955 705.496 529.088C705.496 534.22 709.693 538.394 714.85 538.394C720.009 538.394 724.205 534.22 724.205 529.088C724.205 523.955 720.009 519.781 714.85 519.781Z" fill="#3D3D3D"/>
<path d="M1280.84 1016.9H1315.58V622.299H1280.84V1016.9Z" fill="#A0A0A0"/>
<path d="M1280.84 1016.9H1315.58V1003.12H1280.84V1016.9Z" fill="#3F4547"/>
<path d="M1294.4 961.727C1294.4 964.192 1292.81 966.189 1290.85 966.189C1288.9 966.189 1287.3 964.192 1287.3 961.727V643.69C1287.3 641.225 1288.9 639.225 1290.85 639.225C1292.81 639.225 1294.4 641.225 1294.4 643.69V961.727Z" fill="#CCCCCC"/>
<path d="M1033.13 1016.9H1067.87V622.299H1033.13V1016.9Z" fill="#A0A0A0"/>
<path d="M1033.13 1016.9H1067.87V1003.12H1033.13V1016.9Z" fill="#3F4547"/>
<path d="M1046.7 961.727C1046.7 964.192 1045.11 966.189 1043.15 966.189C1041.19 966.189 1039.61 964.192 1039.61 961.727V643.69C1039.61 641.225 1041.19 639.225 1043.15 639.225C1045.11 639.225 1046.7 641.225 1046.7 643.69V961.727Z" fill="#CCCCCC"/>
<path d="M635.777 1016.9H670.519V622.299H635.777V1016.9Z" fill="#A0A0A0"/>
<path d="M635.777 1016.9H670.519V1003.12H635.777V1016.9Z" fill="#3F4547"/>
<path d="M649.342 961.727C649.342 964.192 647.755 966.189 645.797 966.189C643.837 966.189 642.25 964.192 642.25 961.727V643.69C642.25 641.225 643.837 639.225 645.797 639.225C647.755 639.225 649.342 641.225 649.342 643.69V961.727Z" fill="#CCCCCC"/>
<path d="M389.098 1016.9H423.839V622.299H389.098V1016.9Z" fill="#A0A0A0"/>
<path d="M389.098 1016.9H423.839V1003.12H389.098V1016.9Z" fill="#3F4547"/>
<path d="M402.66 961.727C402.66 964.192 401.073 966.189 399.113 966.189C397.156 966.189 395.566 964.192 395.566 961.727V643.69C395.566 641.225 397.156 639.225 399.113 639.225C401.073 639.225 402.66 641.225 402.66 643.69V961.727Z" fill="#CCCCCC"/>
<path d="M387.637 644.738H1317.46V614.373H387.637V644.738Z" fill="#302530"/>
<path d="M359.148 621.458H1343.91V601.215H359.148V621.458Z" fill="#60485E"/>
<path d="M1343.91 601.214V621.458H1073.46V601.214H1343.91" fill="#423241"/>
<path d="M465.593 549.997C465.004 549.924 464.41 549.851 463.824 549.777C464.765 549.837 465.364 549.911 465.593 549.997Z" fill="#603043"/>
<path d="M466.584 726.663C445.81 729.664 473.306 739.225 455.301 745.742L547.085 759.793C568.054 758.528 606.5 759.483 644.52 760.438C691.492 761.618 737.814 762.797 749.718 759.793C757.425 757.845 797.399 758.801 800.628 754.285C775.662 713.912 497.741 722.16 466.584 726.663" fill="#00788C"/>
<path d="M894.828 598.318H938.451V507.737H894.828V598.318Z" fill="#3D3D3D"/>
<path d="M894.828 598.318H915.003V507.737H894.828V598.318Z" fill="#757573"/>
<path d="M1016.19 595.071C1016.19 598.203 1013.65 600.732 1010.5 600.732H822.779C819.638 600.732 817.09 598.203 817.09 595.071C817.09 593.511 817.727 592.096 818.757 591.077C819.782 590.053 821.211 589.417 822.779 589.417H1010.5C1013.65 589.417 1016.19 591.952 1016.19 595.071" fill="#999995"/>
<path d="M1016.19 595.071C1016.19 598.203 1014.41 600.732 1012.21 600.732H944.406C942.204 600.732 940.418 598.203 940.418 595.071C940.418 593.511 940.865 592.096 941.587 591.077C942.309 590.053 943.302 589.417 944.406 589.417H1012.21C1014.41 589.417 1016.19 591.952 1016.19 595.071" fill="#3D3D3D"/>
<path d="M1078.07 349.547V521.115C1078.07 531.002 1071.39 539.229 1062.58 540.963C1061.46 541.191 1060.29 541.303 1059.1 541.303H755.702C754.514 541.303 753.351 541.191 752.225 540.963C743.413 539.229 736.738 531.002 736.738 521.115V349.547C736.738 338.402 745.234 329.365 755.702 329.365H1059.1C1069.58 329.365 1078.07 338.402 1078.07 349.547" fill="#3D3D3D"/>
<path d="M1055.47 356.698V513.97C1055.47 524.19 1047.79 532.473 1038.31 532.473H763.907C754.434 532.473 746.754 524.19 746.754 513.97V356.698C746.754 346.477 754.434 338.195 763.907 338.195H1038.31C1047.79 338.195 1055.47 346.477 1055.47 356.698Z" fill="#544753"/>
<path d="M1056.38 496.147V521.642C1056.38 531.736 1050.11 540.136 1041.83 541.909H750.338C742.061 540.136 735.793 531.736 735.793 521.642V496.147H1056.38Z" fill="#CCCCCC"/>
<path d="M900.533 512.534C900.533 516.441 896.288 519.608 891.051 519.608C885.814 519.608 881.57 516.441 881.57 512.534C881.57 508.626 885.814 505.458 891.051 505.458C896.288 505.458 900.533 508.626 900.533 512.534Z" fill="#757573"/>
<path d="M774.644 348.111H758.945V349.786H774.644V348.111Z" fill="#CACEA5"/>
<path d="M864.362 348.111H843.055V349.786H864.362V348.111Z" fill="#CACEA5"/>
<path d="M868.848 348.111V349.786H938.378V348.111H868.848Z" fill="#CACEA5"/>
<path d="M986.046 349.786V348.111H942.867V349.786H958.569V348.669H963.617V349.786H986.046Z" fill="#CACEA5"/>
<path d="M998.941 348.111V349.786H1016.32V348.111H998.941Z" fill="#CACEA5"/>
<path d="M774.644 355.922H758.945V357.597H774.644V355.922Z" fill="#CACEA5"/>
<path d="M938.379 355.922H920.438V357.597H938.379V355.922Z" fill="#CACEA5"/>
<path d="M958.569 355.922H942.867V357.597H958.569V355.922Z" fill="#CACEA5"/>
<path d="M998.941 355.922V357.597H1016.32V355.922H998.941Z" fill="#CACEA5"/>
<path d="M986.046 355.922H963.617V357.597H986.046V355.922Z" fill="#CACEA5"/>
<path d="M864.362 355.922H843.055V357.597H864.362V355.922Z" fill="#CACEA5"/>
<path d="M868.848 355.922V357.597H912.025V355.922H868.848Z" fill="#CACEA5"/>
<path d="M774.644 363.733H758.945V365.407H774.644V363.733Z" fill="#CACEA5"/>
<path d="M912.025 363.733H853.707V365.407H912.025V363.733" fill="#CACEA5"/>
<path d="M923.801 363.733H920.438V365.407H923.801V363.733Z" fill="#CACEA5"/>
<path d="M936.699 363.733V365.407H958.568V363.733H936.699Z" fill="#CACEA5"/>
<path d="M986.046 363.733H963.617V365.407H986.046V363.733Z" fill="#CACEA5"/>
<path d="M998.941 363.733V365.407H1016.32V363.733H998.941Z" fill="#CACEA5"/>
<path d="M774.644 371.545H758.945V373.218H774.644V371.545Z" fill="#CACEA5"/>
<path d="M912.025 371.545H853.707V373.218H912.025V371.545" fill="#CACEA5"/>
<path d="M923.801 371.545H920.438V373.218H923.801V371.545Z" fill="#CACEA5"/>
<path d="M936.699 371.545V373.218H986.045V371.545H936.699Z" fill="#CACEA5"/>
<path d="M1007.35 371.545V373.218H1016.32V371.545H1007.35Z" fill="#CACEA5"/>
<path d="M1005.11 371.545H998.941V373.218H1005.11V371.545Z" fill="#CACEA5"/>
<path d="M804.363 379.355H758.945V381.029H804.363V379.355Z" fill="#CACEA5"/>
<path d="M867.726 379.355H853.707V381.029H867.726V379.355Z" fill="#CACEA5"/>
<path d="M936.699 379.355V381.029H1005.11V379.355H936.699Z" fill="#CACEA5"/>
<path d="M1007.35 379.355V381.029H1016.32V379.355H1007.35Z" fill="#CACEA5"/>
<path d="M904.177 379.355H886.793V381.029H904.177V379.355Z" fill="#CACEA5"/>
<path d="M840.812 388.281H804.363V387.166H758.945V388.839H840.812V388.281Z" fill="#CACEA5"/>
<path d="M904.177 387.166H886.793V388.839H904.177V387.166Z" fill="#CACEA5"/>
<path d="M936.697 387.166V388.281H931.09V388.839H967.537V387.166H936.697" fill="#CACEA5"/>
<path d="M969.223 387.166V388.839H1005.11V387.166H969.223Z" fill="#CACEA5"/>
<path d="M1007.35 387.166V388.839H1016.32V387.166H1007.35Z" fill="#CACEA5"/>
<path d="M867.726 387.166H853.707V388.839H867.726V387.166Z" fill="#CACEA5"/>
<path d="M758.945 394.977V396.65H761.187V396.092H766.234V396.65H867.728V394.977H758.945Z" fill="#E0E8BF"/>
<path d="M904.177 394.977H886.793V396.65H904.177V394.977Z" fill="#E0E8BF"/>
<path d="M967.537 394.977H931.09V396.65H967.537V394.977" fill="#E0E8BF"/>
<path d="M969.223 394.977V396.65H1005.11V394.977H969.223Z" fill="#E0E8BF"/>
<path d="M1007.35 394.977V396.65H1016.32V394.977H1007.35Z" fill="#E0E8BF"/>
<path d="M761.187 402.787H758.945V404.46H761.187V402.787Z" fill="#E0E8BF"/>
<path d="M766.234 402.787V404.46H867.728V402.787H766.234Z" fill="#E0E8BF"/>
<path d="M904.177 402.787H886.793V404.46H904.177V402.787Z" fill="#E0E8BF"/>
<path d="M967.537 402.787H931.09V404.46H967.537V402.787" fill="#E0E8BF"/>
<path d="M969.223 402.787V404.46H1005.11V402.787H969.223Z" fill="#E0E8BF"/>
<path d="M1007.35 402.787V404.46H1016.32V402.787H1007.35Z" fill="#E0E8BF"/>
<path d="M766.234 410.598V412.272H867.728V410.598H766.234Z" fill="#E0E8BF"/>
<path d="M901.372 410.598H886.793V412.272H901.372V410.598Z" fill="#E0E8BF"/>
<path d="M961.37 410.598H931.09V412.272H961.37V410.598Z" fill="#E0E8BF"/>
<path d="M989.969 410.598V412.272H1016.32V410.598H989.969" fill="#E0E8BF"/>
<path d="M979.876 410.598H974.27V412.272H979.876V410.598Z" fill="#E0E8BF"/>
<path d="M961.37 418.408H931.09V420.083H961.37V418.408Z" fill="#E0E8BF"/>
<path d="M979.876 418.408H974.27V420.083H979.876V418.408Z" fill="#E0E8BF"/>
<path d="M989.969 418.408V420.083H996.697V418.408H989.969Z" fill="#E0E8BF"/>
<path d="M999.5 418.408V420.083H1016.32V418.408H999.5Z" fill="#E0E8BF"/>
<path d="M901.372 418.408H886.793V420.083H901.372V418.408Z" fill="#E0E8BF"/>
<path d="M766.234 418.408V420.083H783.056V418.408H766.234Z" fill="#E0E8BF"/>
<path d="M783.617 418.408V420.083H867.729V418.408H783.617Z" fill="#E0E8BF"/>
<path d="M901.372 426.22H886.793V427.895H901.372V426.22Z" fill="#E0E8BF"/>
<path d="M961.37 426.22H931.09V427.895H961.37V426.22Z" fill="#E0E8BF"/>
<path d="M974.27 426.22V427.895H979.876V426.22H974.27Z" fill="#E0E8BF"/>
<path d="M989.969 426.22V427.895H996.697V426.22H989.969Z" fill="#E0E8BF"/>
<path d="M999.5 426.22V427.895H1016.32V426.22H999.5Z" fill="#E0E8BF"/>
<path d="M783.617 426.22V427.895H867.729V426.22H783.617Z" fill="#E0E8BF"/>
<path d="M766.234 426.22V427.895H783.056V426.22H766.234Z" fill="#E0E8BF"/>
<path d="M766.233 434.031V435.147H761.186V434.031H760.625V435.704H783.055V434.031H766.233Z" fill="#E0E8BF"/>
<path d="M783.617 434.031V435.704H901.373V434.031H783.617Z" fill="#E0E8BF"/>
<path d="M947.913 434.031H931.09V435.704H947.913V434.031Z" fill="#E0E8BF"/>
<path d="M949.594 434.031V435.704H996.696V434.031H949.594Z" fill="#E0E8BF"/>
<path d="M999.5 434.031V435.704H1016.32V434.031H999.5Z" fill="#E0E8BF"/>
<path d="M818.941 441.842V443.516H901.369V441.842H818.941Z" fill="#E0E8BF"/>
<path d="M760.625 441.842V443.516H783.055V441.842H760.625Z" fill="#E0E8BF"/>
<path d="M783.617 441.842V443.516H811.655V441.842H783.617Z" fill="#E0E8BF"/>
<path d="M949.594 441.842V443.516H996.696V441.842H949.594Z" fill="#E0E8BF"/>
<path d="M947.912 441.842H915.949V443.516H947.912V441.842Z" fill="#E0E8BF"/>
<path d="M999.5 441.842V443.516H1016.32V441.842H999.5Z" fill="#E0E8BF"/>
<path d="M771.279 449.652H760.625V451.327H771.279V449.652Z" fill="#E0E8BF"/>
<path d="M774.082 449.652V451.327H783.054V449.652H774.082Z" fill="#E0E8BF"/>
<path d="M783.617 449.652V451.327H811.655V449.652H783.617Z" fill="#E0E8BF"/>
<path d="M818.941 449.652V451.327H901.369V449.652H818.941Z" fill="#E0E8BF"/>
<path d="M947.912 449.652H915.949V451.327H947.912V449.652Z" fill="#E0E8BF"/>
<path d="M949.594 449.652V451.327H996.696V449.652H949.594Z" fill="#E0E8BF"/>
<path d="M999.5 449.652V451.327H1016.32V449.652H999.5Z" fill="#E0E8BF"/>
<path d="M842.492 457.464V459.137H930.529V457.464H842.492Z" fill="#E0E8BF"/>
<path d="M771.279 457.464H760.625V459.137H771.279V457.464Z" fill="#E0E8BF"/>
<path d="M786.419 457.464H774.082V459.137H786.419V457.464Z" fill="#E0E8BF"/>
<path d="M792.027 457.464V459.137H811.653V457.464H792.027Z" fill="#E0E8BF"/>
<path d="M818.941 457.464V459.137H838.567V457.464H818.941Z" fill="#E0E8BF"/>
<path d="M933.895 457.464V459.137H947.913V457.464H933.895Z" fill="#E0E8BF"/>
<path d="M949.594 457.464V459.137H1016.32V457.464H949.594" fill="#E0E8BF"/>
<path d="M933.895 465.275V466.949H947.913V465.275H933.895Z" fill="#E0E8BF"/>
<path d="M771.28 465.275H758.945V466.949H771.28V465.275Z" fill="#E0E8BF"/>
<path d="M792.027 465.275V466.949H811.653V465.275H792.027Z" fill="#E0E8BF"/>
<path d="M786.419 465.275H774.082V466.949H786.419V465.275Z" fill="#E0E8BF"/>
<path d="M818.941 465.275V466.949H838.567V465.275H818.941Z" fill="#E0E8BF"/>
<path d="M842.492 465.275V466.949H930.529V465.275H842.492Z" fill="#E0E8BF"/>
<path d="M949.594 465.275V466.949H1016.32V465.275H949.594" fill="#E0E8BF"/>
<path d="M771.28 473.085H758.945V474.76H771.28V473.085Z" fill="#E0E8BF"/>
<path d="M808.85 473.085H792.027V474.76H808.85V473.085Z" fill="#E0E8BF"/>
<path d="M819.504 473.085V474.76H838.57V473.085H819.504Z" fill="#E0E8BF"/>
<path d="M786.419 473.085H774.082V474.76H786.419V473.085Z" fill="#E0E8BF"/>
<path d="M842.492 473.085V474.76H866.605V473.085H842.492Z" fill="#E0E8BF"/>
<path d="M869.969 473.085V474.76H892.399V473.085H869.969Z" fill="#E0E8BF"/>
<path d="M897.449 473.085V474.76H930.531V473.085H897.449Z" fill="#E0E8BF"/>
<path d="M933.895 473.085V474.76H1016.32V473.085H933.895" fill="#E0E8BF"/>
<path d="M786.421 480.896H758.945V482.57H786.421V480.896Z" fill="#E0E8BF"/>
<path d="M808.85 480.896H792.027V482.57H808.85V480.896Z" fill="#E0E8BF"/>
<path d="M819.504 480.896V482.57H866.607V480.896H819.504Z" fill="#E0E8BF"/>
<path d="M869.969 480.896V482.57H892.399V480.896H869.969Z" fill="#E0E8BF"/>
<path d="M897.449 480.896V482.57H930.531V480.896H897.449Z" fill="#E0E8BF"/>
<path d="M933.895 480.896V482.57H1016.32V480.896H933.895" fill="#E0E8BF"/>
<path d="M918.161 472.283H768.621V360.164H918.161V472.283Z" fill="#353535"/>
<path d="M918.184 368.56H768.598V360.164H918.184V368.56Z" fill="#707070"/>
<path d="M910.328 364.249C910.328 365.861 909.016 367.167 907.397 367.167C905.778 367.167 904.465 365.861 904.465 364.249C904.465 362.639 905.778 361.332 907.397 361.332C909.016 361.332 910.328 362.639 910.328 364.249Z" fill="#FF5821"/>
<path d="M896.254 364.249C896.254 365.861 894.942 367.167 893.322 367.167C891.704 367.167 890.391 365.861 890.391 364.249C890.391 362.639 891.704 361.332 893.322 361.332C894.942 361.332 896.254 362.639 896.254 364.249Z" fill="#889F33"/>
<path d="M882.962 364.249C882.962 365.861 881.65 367.167 880.031 367.167C878.411 367.167 877.098 365.861 877.098 364.249C877.098 362.639 878.411 361.332 880.031 361.332C881.65 361.332 882.962 362.639 882.962 364.249Z" fill="white"/>
<path d="M784.638 379.475H778.773V381.142H784.638V379.475Z" fill="#889F33"/>
<path d="M804.324 379.475V381.142H886.423V379.475H804.324Z" fill="#889F33"/>
<path d="M784.638 386.143H778.773V387.811H784.638V386.143Z" fill="#889F33"/>
<path d="M804.324 386.143V387.811H866.736V386.561H880.14V387.811H880.979V386.143H804.324Z" fill="#889F33"/>
<path d="M784.638 392.811H778.773V394.479H784.638V392.811Z" fill="#889F33"/>
<path d="M804.324 392.811V394.479H859.197V392.811H804.324Z" fill="#889F33"/>
<path d="M880.979 393.644V392.811H880.141V394.479H886.423V393.644H880.979Z" fill="#889F33"/>
<path d="M804.325 399.48V400.313H784.638V399.48H778.773V401.147H826.106V399.48H804.325" fill="#889F33"/>
<path d="M848.727 399.48V401.147H859.199V399.48H848.727Z" fill="#889F33"/>
<path d="M886.842 399.48H878.883V401.147H886.842V399.48Z" fill="#889F33"/>
<path d="M804.325 406.149H778.773V407.816H804.325V406.149Z" fill="#889F33"/>
<path d="M890.195 406.149H848.727V407.816H890.195V406.149Z" fill="#889F33"/>
<path d="M804.325 412.817H778.773V414.484H804.325V412.817Z" fill="#889F33"/>
<path d="M890.193 412.817H848.725V414.066H826.105V412.817H824.43V414.484H843.28V414.483H857.52V414.484H859.616V413.233H868.411V414.484H873.439V413.649H890.193V412.817Z" fill="#889F33"/>
<path d="M843.281 419.486H824.431V419.902H804.325V419.486H778.773V421.153H843.281V419.486" fill="#889F33"/>
<path d="M859.619 419.486H857.523V421.153H859.619V419.486Z" fill="#889F33"/>
<path d="M873.442 419.486H868.414V421.153H873.442V419.486Z" fill="#889F33"/>
<path d="M805.583 441.99H780.031V443.657H805.583V441.99Z" fill="#FF5821"/>
<path d="M832.808 441.99H827.781V443.657H832.808V441.99Z" fill="#FF5821"/>
<path d="M867.992 441.99H845.793V443.657H867.992V441.99Z" fill="#FF5821"/>
<path d="M805.583 449.91H779.613V451.577H805.583V449.91Z" fill="#FF5821"/>
<path d="M832.808 449.91H827.781V451.577H832.808V449.91Z" fill="#FF5821"/>
<path d="M848.725 449.91H845.793V451.577H848.725V449.91Z" fill="#FF5821"/>
<path d="M867.992 449.91H860.035V451.577H867.992V449.91Z" fill="#FF5821"/>
<path d="M805.583 457.828H779.195V459.495H805.583V457.828Z" fill="#FF5821"/>
<path d="M865.899 457.828H827.781V459.495H865.899V457.828Z" fill="#FF5821"/>
<path d="M1039.71 486.374H929.355V403.631H1039.71V486.374Z" fill="#353535"/>
<path d="M1039.73 409.827H929.336V403.631H1039.73V409.827Z" fill="#707070"/>
<path d="M1033.93 406.646C1033.93 407.834 1032.96 408.799 1031.77 408.799C1030.57 408.799 1029.61 407.834 1029.61 406.646C1029.61 405.456 1030.57 404.493 1031.77 404.493C1032.96 404.493 1033.93 405.456 1033.93 406.646Z" fill="#FF5821"/>
<path d="M1023.55 406.646C1023.55 407.834 1022.58 408.799 1021.38 408.799C1020.19 408.799 1019.22 407.834 1019.22 406.646C1019.22 405.456 1020.19 404.493 1021.38 404.493C1022.58 404.493 1023.55 405.456 1023.55 406.646Z" fill="#889F33"/>
<path d="M1013.74 406.646C1013.74 407.834 1012.77 408.799 1011.57 408.799C1010.38 408.799 1009.41 407.834 1009.41 406.646C1009.41 405.456 1010.38 404.493 1011.57 404.493C1012.77 404.493 1013.74 405.456 1013.74 406.646Z" fill="white"/>
<path d="M951.554 420.587H936.172V421.176H951.554V420.587Z" fill="white"/>
<path d="M963.68 420.587V421.176H983.794V420.587H963.68Z" fill="white"/>
<path d="M961.906 420.587H953.625V421.176H961.906V420.587Z" fill="white"/>
<path d="M991.485 420.587H986.754V421.176H991.485V420.587Z" fill="white"/>
<path d="M1017.22 420.587H992.375V421.176H1017.22V420.587Z" fill="white"/>
<path d="M1023.14 420.587H1018.11V421.176H1023.14V420.587Z" fill="white"/>
<path d="M1023.73 420.587V421.176H1032.01V420.587H1023.73Z" fill="white"/>
<path d="M951.554 422.059H936.172V422.942H951.554V422.059Z" fill="white"/>
<path d="M961.906 422.059H953.625V422.942H961.906V422.059Z" fill="white"/>
<path d="M963.68 422.059V422.942H983.794V422.059H963.68Z" fill="white"/>
<path d="M991.485 422.059H986.754V422.942H991.485V422.059Z" fill="white"/>
<path d="M992.375 422.059V422.942H1006.87V422.353H1007.76V422.942H1017.22V422.059H992.375" fill="white"/>
<path d="M1023.14 422.059H1018.11V422.942H1023.14V422.059Z" fill="white"/>
<path d="M1023.73 422.059V422.942H1032.01V422.059H1023.73Z" fill="white"/>
<path d="M962.202 429.71H936.172V430.299H962.202V429.71Z" fill="white"/>
<path d="M962.793 429.71V430.299H973.146V429.71H962.793Z" fill="white"/>
<path d="M975.516 429.71V430.299H983.797V429.71H975.516Z" fill="white"/>
<path d="M1006.87 429.71H986.754V430.299H1006.87V429.71Z" fill="white"/>
<path d="M1018.7 429.71V430.299H1032.01V429.71H1018.7Z" fill="white"/>
<path d="M1017.22 429.71H1007.76V430.299H1017.22V429.71Z" fill="white"/>
<path d="M962.793 431.183V433.538H973.146V431.183H962.793Z" fill="white"/>
<path d="M962.202 431.183H936.172V433.538H962.202V431.183Z" fill="white"/>
<path d="M975.516 431.183V433.538H983.797V431.183H975.516Z" fill="white"/>
<path d="M1017.22 431.183H1007.76V433.243H1006.87V431.183H986.754V433.538H1017.22V431.183Z" fill="white"/>
<path d="M1018.7 431.183V433.538H1023.43V432.065H1027.28V433.538H1032.01V431.183H1018.7Z" fill="white"/>
<path d="M950.372 442.496H936.469V445.218H944.751V442.66H950.372V442.496" fill="white"/>
<path d="M1003.02 442.496V442.66H1007.16V442.496H1003.02Z" fill="white"/>
<path d="M1019 442.496V442.66H1024.32V445.218H1032.31V442.496H1019" fill="white"/>
<path d="M1011.6 442.496V442.66H1017.52V442.496H1011.6Z" fill="white"/>
<path d="M963.09 459.142V460.191H973.444V459.142H963.09Z" fill="white"/>
<path d="M964.57 453.551V455.317H973.445V453.551H964.57Z" fill="white"/>
<path d="M936.469 453.551V455.317H946.525V453.845H946.822V455.317H948.892V453.551H936.469Z" fill="white"/>
<path d="M949.188 453.551V455.317H960.429V453.551H949.188Z" fill="white"/>
<path d="M949.188 459.142V460.191H962.498V459.142H949.188Z" fill="white"/>
<path d="M946.525 459.142H936.469V460.191H946.525V459.142Z" fill="white"/>
<path d="M946.82 459.142V460.191H948.891V459.142H946.82Z" fill="white"/>
<path d="M982.611 453.551H975.809V455.317H982.611V453.551Z" fill="white"/>
<path d="M982.611 459.142H975.809V460.191H982.611V459.142Z" fill="white"/>
<path d="M1011.6 453.551V455.317H1017.52V453.551H1011.6Z" fill="white"/>
<path d="M987.051 453.551V455.317H1007.16V453.551H987.051Z" fill="white"/>
<path d="M986.031 469.872V471.638H1006.15V469.872H986.031" fill="white"/>
<path d="M1010.2 469.872V471.638H1030.31V469.872H1010.2Z" fill="white"/>
<path d="M1007.46 459.142H987.051V460.191H1007.46V459.142Z" fill="white"/>
<path d="M1011.6 459.142V460.191H1017.52V459.142H1011.6Z" fill="white"/>
<path d="M1019 453.551V455.317H1023.73V453.551H1019Z" fill="white"/>
<path d="M1027.57 453.551V455.317H1032.31V453.551H1027.57Z" fill="white"/>
<path d="M1019 459.142V460.191H1023.73V459.142H1019Z" fill="white"/>
<path d="M1027.57 459.142V460.191H1032.31V459.142H1027.57Z" fill="white"/>
<path d="M973.219 463.751V463.917H978.543V466.474H986.529V463.751H973.219" fill="white"/>
<path d="M965.82 474.807V476.573H971.736V474.807H965.82Z" fill="white"/>
<path d="M941.27 474.807V476.573H961.385V474.807H941.27Z" fill="white"/>
<path d="M961.68 480.399H941.27V481.447H961.68V480.399Z" fill="white"/>
<path d="M965.82 480.399V481.447H971.736V480.399H965.82Z" fill="white"/>
<path d="M973.219 474.807V476.573H977.951V474.807H973.219Z" fill="white"/>
<path d="M981.797 474.807V476.573H986.528V474.807H981.797Z" fill="white"/>
<path d="M973.219 480.399V481.447H977.951V480.399H973.219Z" fill="white"/>
<path d="M981.797 480.399V481.447H986.528V480.399H981.797Z" fill="white"/>
<path d="M951.554 416.172H936.172V418.232H951.554V416.172Z" fill="white"/>
<path d="M961.906 416.172H953.625V418.232H961.906V416.172Z" fill="white"/>
<path d="M963.68 416.172V418.232H983.794V416.172H963.68Z" fill="white"/>
<path d="M1017.22 418.232V416.172H986.754V418.232H991.485V416.762H992.373V418.232H1017.22Z" fill="white"/>
<path d="M1018.11 416.172V418.232H1023.14V417.644H1023.73V418.232H1032.01V416.172H1018.11Z" fill="white"/>
<path d="M858.637 593.017L858.676 599.765L942.095 599.281L942.055 592.533L858.637 593.017" fill="#9C9E8F"/>
<path d="M696.886 593.954L691.84 600.732L880.038 599.64L879.998 592.893L696.886 593.954" fill="#C9CCBC"/>
<path d="M716.068 588.107L696.887 593.954L942.054 592.534L936.935 586.828L716.068 588.107Z" fill="#3D3D3D"/>
<path d="M1047.42 600.732H985.973C992.031 591.608 1002.07 582.811 1020.9 583.948C1023.22 584.088 1025.42 584.423 1027.49 584.922C1037.9 587.428 1045 594.056 1047.42 600.732" fill="#728425"/>
<path d="M1047.42 600.732H1005.61C1010.08 593.994 1016.73 587.432 1027.49 584.922C1037.9 587.428 1045 594.056 1047.42 600.732" fill="#889F33"/>
<path d="M1157.34 587.863C1157.84 595.042 1152.4 600.86 1145.19 600.86H1104.26C1097.05 600.86 1091.93 595.042 1092.83 587.863L1103.17 505.551C1104.07 498.374 1108.81 492.555 1113.75 492.555H1141.76C1146.7 492.555 1151.11 498.374 1151.61 505.551L1157.34 587.863Z" fill="#3D3D3D"/>
<path d="M1146.2 585.589C1146.6 591.201 1142.26 595.749 1136.49 595.749H1103.8C1098.04 595.749 1093.95 591.201 1094.68 585.589L1102.94 521.255C1103.66 515.644 1107.44 511.095 1111.38 511.095H1133.76C1137.7 511.095 1141.22 515.644 1141.62 521.255L1146.2 585.589" fill="#707070"/>
<path d="M1121.26 548.881C1110.26 548.881 1101.31 557.789 1101.31 568.737C1101.31 579.685 1110.26 588.593 1121.26 588.593C1132.27 588.593 1141.22 579.685 1141.22 568.737C1141.22 557.789 1132.27 548.881 1121.26 548.881ZM1121.26 590.188C1109.38 590.188 1099.7 580.566 1099.7 568.737C1099.7 556.91 1109.38 547.286 1121.26 547.286C1133.15 547.286 1142.82 556.91 1142.82 568.737C1142.82 580.566 1133.15 590.188 1121.26 590.188Z" fill="#3D3D3D"/>
<path d="M1121.26 552.278C1112.14 552.278 1104.72 559.661 1104.72 568.736C1104.72 577.813 1112.14 585.195 1121.26 585.195C1130.38 585.195 1137.81 577.813 1137.81 568.736C1137.81 559.661 1130.38 552.278 1121.26 552.278Z" fill="#3D3D3D"/>
<path d="M1121.27 518.873C1115.04 518.873 1109.98 523.91 1109.98 530.1C1109.98 536.291 1115.04 541.328 1121.27 541.328C1127.49 541.328 1132.55 536.291 1132.55 530.1C1132.55 523.91 1127.49 518.873 1121.27 518.873ZM1121.27 542.231C1114.54 542.231 1109.07 536.79 1109.07 530.1C1109.07 523.411 1114.54 517.97 1121.27 517.97C1127.99 517.97 1133.46 523.411 1133.46 530.1C1133.46 536.79 1127.99 542.231 1121.27 542.231Z" fill="#3D3D3D"/>
<path d="M1121.27 520.793C1116.11 520.793 1111.91 524.969 1111.91 530.1C1111.91 535.233 1116.11 539.407 1121.27 539.407C1126.42 539.407 1130.62 535.233 1130.62 530.1C1130.62 524.969 1126.42 520.793 1121.27 520.793Z" fill="#3D3D3D"/>
<path d="M709.388 999.174C699.19 993.433 690.611 976.887 686.514 966.719C679.912 950.33 682 978.944 669.29 975.776C664.075 974.478 660.641 982.182 659.423 986.65C656.52 997.308 658.731 1014.92 660.581 1021.88C675.735 1023.85 683.561 1023.75 698.846 1023.95C707.642 1024.07 726.661 1024.18 731.956 1016.23C727.805 1005.12 718.367 1004.23 709.388 999.174" fill="#212030"/>
<path d="M663.857 916.949C663.605 929.556 661.569 941.431 662.722 954.403C663.7 965.41 660.844 982.627 669.702 990.678C687.148 982.064 687.01 942.706 691.836 925.809L663.857 916.949Z" fill="#FFA471"/>
<path d="M652.97 955.818L687.964 958.02C689.024 953.591 690.06 949.146 691.091 944.675C705.536 881.974 727.993 813.403 732.192 747.365L670.04 733.764C658.948 735.065 652.575 773.479 650.672 786.837C646.465 816.397 650.212 846.647 651.41 876.275C652.432 901.606 654.014 929.031 652.97 955.818Z" fill="#212030"/>
<path d="M861.216 999.174C851.017 993.433 842.44 976.887 838.341 966.719C831.74 950.33 833.828 978.944 821.116 975.776C815.903 974.478 812.469 982.182 811.252 986.65C808.348 997.308 810.559 1014.92 812.41 1021.88C827.563 1023.85 835.389 1023.75 850.674 1023.95C859.47 1024.07 878.489 1024.18 883.783 1016.23C879.633 1005.12 870.195 1004.23 861.216 999.174Z" fill="#212030"/>
<path d="M815.682 916.949C815.43 929.556 813.393 941.431 814.546 954.403C815.525 965.41 812.668 982.627 821.526 990.678C838.973 982.064 838.834 942.706 843.66 925.809L815.682 916.949" fill="#FFA471"/>
<path d="M884.013 747.365L883.993 747.628C881.068 793.186 869.465 839.954 857.817 885.159C852.598 905.394 847.375 925.314 842.914 944.675C841.886 949.146 840.849 953.588 839.791 958.021L804.795 955.816C805.838 929.034 804.256 901.607 803.234 876.276C802.037 846.647 798.289 816.397 802.496 786.834C802.909 783.939 803.534 779.865 804.368 775.246C806.459 763.676 809.886 748.695 814.688 740.259C816.809 736.529 819.201 734.078 821.866 733.767L884.013 747.365Z" fill="#212030"/>
<path d="M883.994 747.628C883.154 750.168 881.69 752.79 879.518 755.482C871.038 765.999 854.649 771.02 836.454 773.353C825.971 774.698 814.888 775.149 804.369 775.246C791.922 775.357 780.263 774.967 771.332 774.967C745.976 774.967 720.887 775.032 695.898 772.942C682.333 771.808 665.176 772.954 650.485 771.004C645.652 770.361 641.086 769.384 637 767.881L643.964 686.905C691.29 682.777 714.475 676.734 760.584 686.4C776.378 689.709 896.166 710.743 883.994 747.628" fill="#212030"/>
<path d="M857.817 885.159C852.598 905.394 847.375 925.314 842.914 944.675C841.886 949.146 840.849 953.588 839.791 958.021L804.795 955.816C805.838 929.034 804.256 901.607 803.234 876.276C802.037 846.647 798.289 816.397 802.495 786.834C802.909 783.939 803.534 779.865 804.368 775.246C791.921 775.357 780.262 774.967 771.331 774.967C745.975 774.967 720.886 775.032 695.897 772.942C682.332 771.808 665.175 772.954 650.484 771.004L654.563 732.425C659.32 739.343 692.001 738.088 702.209 738.498C724.748 739.408 746.946 738.877 769.362 740.016C782.907 740.704 798.875 740.153 814.688 740.259C832.338 740.379 849.801 741.331 863.52 745.755C852.375 747.248 843.402 751.008 833.269 755.579C839.413 759.171 849.842 760.983 855.891 763.974C847.772 763.037 841.418 766.9 836.453 773.353C823.696 789.933 820.115 823.653 819.384 837.197C818.576 852.126 819.893 872.725 833.205 882.447C841.825 888.753 849.816 887.755 857.817 885.159" fill="#171721"/>
<path d="M669.045 317.248C662.901 317.248 657.901 322.216 657.901 328.323V332.401C657.901 338.508 662.901 343.477 669.045 343.477H676.081C682.225 343.477 687.225 338.508 687.225 332.401V328.323C687.225 322.216 682.225 317.248 676.081 317.248H669.045ZM676.081 345.798H669.045C661.499 345.798 655.359 339.788 655.359 332.401V328.323C655.359 320.936 661.499 314.926 669.045 314.926H676.081C683.629 314.926 689.768 320.936 689.768 328.323V332.401C689.768 339.788 683.629 345.798 676.081 345.798Z" fill="#636363"/>
<path d="M669.706 338.718C669.328 341.825 668.354 352.968 668.531 359.215C668.752 366.988 669.716 375.054 671.237 382.552C662.631 385.697 649.637 375.021 644.048 369.372C635.583 360.812 630.826 350.434 629.418 338.584L669.706 338.718Z" fill="#F2EDEE"/>
<path d="M663.626 344.863C658.573 344.782 655.029 353.026 654.585 357.233C653.763 365.066 661.321 372.401 659.721 379.727C653.901 377.497 646.914 369.956 642.456 365.531C637.908 361.019 629.652 352.369 629.957 345.528L663.626 344.863" fill="#F2F0EB"/>
<path d="M675.368 355.266C674.961 369.001 672.224 382.58 672.29 384.968L672.285 384.978C672.296 385.216 672.296 385.464 672.282 385.697C672.266 386.744 672.108 387.792 671.656 388.744C671.192 389.679 670.44 390.515 669.239 391.148C664.289 393.749 657.855 393.987 651.752 392.827C650.734 392.635 649.721 392.403 648.73 392.135C648.048 391.957 647.381 391.76 646.72 391.547C644.452 390.815 642.315 389.913 640.418 388.901C637.599 387.392 635.311 385.637 633.907 383.825C633.353 383.101 632.935 382.367 632.682 381.638C632.666 381.967 632.646 382.321 632.631 382.707C632.62 382.893 632.611 383.08 632.606 383.273L632.595 383.51C632.58 383.744 632.57 383.982 632.56 384.225L632.549 384.467V384.523C632.539 384.73 632.534 384.938 632.524 385.151C632.513 385.429 632.504 385.717 632.488 386.006C632.477 386.304 632.468 386.614 632.458 386.932C632.427 387.792 632.392 388.703 632.362 389.665C632.315 391.128 632.27 392.66 632.224 394.234C632.213 394.706 632.197 395.181 632.188 395.656C632.112 398.415 632.046 401.269 631.985 404.048C631.98 404.296 631.974 404.544 631.97 404.787C631.923 406.771 631.888 408.713 631.852 410.546C631.806 413.027 631.766 415.308 631.741 417.258C631.679 421.089 631.659 423.608 631.679 423.714L631.537 423.751C627.678 424.778 621.679 425.249 614.777 425.223C602.223 425.182 586.679 423.498 575.585 420.542L575.58 420.537C571.155 419.362 567.436 417.981 564.897 416.422C564.002 415.876 563.261 415.303 562.68 414.717L562.624 414.656L562.34 414.342C563.622 412.064 564.522 406.983 565.167 400.576C565.239 399.868 565.309 399.144 565.371 398.405C565.473 397.297 565.558 396.153 565.646 394.984C565.931 391.067 566.144 386.865 566.312 382.64C566.632 374.295 566.76 365.843 566.851 359.264V359.259C566.902 355.782 566.937 352.826 566.988 350.685C567.029 349.045 567.039 347.619 567.025 346.454C566.795 332.222 565.132 318.047 564.126 303.779C562.589 281.906 652.759 286.486 652.759 286.486C659.559 291.68 661.839 299.342 663.705 307.769C663.735 307.91 663.766 308.052 663.796 308.193C664.366 310.784 664.905 313.447 665.526 316.134C665.597 316.442 665.673 316.757 665.748 317.065C665.81 317.323 665.876 317.586 665.938 317.844L665.947 317.886L666.024 318.183C666.262 319.13 666.511 320.081 666.782 321.028C666.904 321.438 667.021 321.843 667.148 322.252C667.677 323.974 668.277 325.689 668.984 327.384C669.265 327.659 669.528 327.951 669.784 328.255C670.266 328.826 670.714 329.449 671.12 330.117C672.753 332.764 673.827 336.12 674.493 339.865C675.332 344.596 675.526 349.941 675.368 355.266" fill="#FFA471"/>
<path d="M671.652 388.741C671.189 389.679 670.438 390.516 669.236 391.148C656.912 397.625 635.386 389.431 632.682 381.639C632.145 391.94 631.178 430.986 631.608 432.985C616.879 437.012 570.068 423.434 562.34 414.342C566.843 406.325 566.68 363.633 566.987 350.687L629.036 336.234C629.951 337.953 628.916 341.643 628.84 343.835C628.74 346.632 628.791 349.58 628.974 352.373C629.316 357.691 630.805 363.222 633.115 368.139C637.39 377.236 645.617 387.008 655.957 389.388C660.286 390.384 666.497 390.493 671.652 388.741Z" fill="#E07F4F"/>
<path d="M680.956 347.087C680.542 346.344 677.866 345.092 677.081 344.216C675.406 342.351 674.547 339.787 673.396 337.603C671.827 334.613 669.636 328.622 667.391 327.25L668.327 356.673C671.744 355.498 685.645 355.485 680.956 347.087" fill="#FFA471"/>
<path d="M671.12 330.117C670.979 330.249 670.83 330.36 670.677 330.456C670.265 330.719 669.818 330.881 669.34 330.922C668.323 331.003 667.331 330.522 666.496 329.647C665.337 328.432 664.497 326.453 664.299 324.16C664.223 323.259 664.254 322.384 664.38 321.574C664.61 320.04 665.164 318.729 665.938 317.843L665.946 317.886L666.024 318.183C666.262 319.13 666.511 320.081 666.782 321.028C666.903 321.437 667.02 321.842 667.148 322.252C667.676 323.974 668.276 325.689 668.984 327.384C669.264 327.658 669.528 327.951 669.783 328.254C670.265 328.826 670.714 329.449 671.12 330.117" fill="#121C26"/>
<path d="M666.782 321.028C665.952 321.155 665.138 321.341 664.38 321.574C662.341 322.197 660.708 323.158 660.285 324.303C660.82 321.017 662.869 318.25 665.748 317.065C665.81 317.323 665.875 317.586 665.937 317.844L665.946 317.886L666.024 318.183C666.262 319.13 666.511 320.081 666.782 321.028Z" fill="#121C26"/>
<path d="M668.796 309.599C666.749 307.528 661.288 306.938 657.884 309.204C654.26 311.162 649.697 316.318 650.343 317.953C650.65 319.293 659.971 317.47 662.238 316.887C664.459 316.157 674.332 315.428 668.796 309.599" fill="#49211C"/>
<path d="M562.767 278.457C570.791 254.963 594.353 257.68 621.432 258.607C650.343 259.596 671.558 270.452 671.558 270.452C671.14 289.19 672.915 290.344 665.421 307.39C660.719 308.019 645.651 333.332 627.287 320.03C633.965 331.476 634.849 360.691 628.73 373.622C623.129 385.45 618.899 377.597 609.334 384.479C607.469 381.096 604.777 377.733 602.073 375.413C603.113 382.114 605.372 389.141 604.236 396.148C596.298 400.468 588.994 400.831 579.774 401.256C566.435 401.87 564.736 400.529 560.828 388.547C554.831 370.166 555.865 360.49 547.469 342.997C541.09 324.81 528.794 295.744 562.767 278.457" fill="#49211C"/>
<path d="M624.359 336.963L687.731 326.048L688.496 329.844L626.871 340.746L624.359 336.963Z" fill="#636363"/>
<path d="M615.024 335.92C623.156 326.641 632.659 338.34 636.437 342.964C636.437 342.964 636.346 359.089 631.977 362.818C626.688 367.332 619.018 363.023 615.634 358.449C611.142 352.376 608.936 342.872 615.024 335.92" fill="#FFA471"/>
<path d="M615.351 341.063C617.897 334.022 624.659 337.412 627.643 342.149C617.21 338.211 616.083 350.204 618.685 356.984C616.137 352.215 613.322 346.679 615.351 341.063" fill="#E07F4F"/>
<path d="M712.628 689.781C712.449 689.877 712.266 689.972 712.084 690.069C699.693 696.533 676.275 703.02 661.655 706.143C657.957 706.927 654.829 707.503 652.577 707.808C627.718 711.179 603.674 710.805 579.447 705.445C573.052 682.215 558.276 660.776 552.853 637.055C546.592 609.656 536.181 569.977 534.858 541.524C533.876 520.47 520.387 465.675 521.668 444.46C522.151 436.459 527.974 437.07 534.222 437.682C540.148 438.262 546.457 438.841 548.963 432.08L549.115 419.373C548.144 411.721 546.776 403.653 548.048 395.773C571.45 394.873 603.698 391.846 624.372 401.563C642.937 410.293 665.363 413.305 681.819 428.063C691.279 436.54 694.291 508.142 699.112 572.886C702.974 624.696 707.983 672.117 718.386 679.315C722.771 682.35 719.581 686.055 712.628 689.781" fill="#FF5821"/>
<path d="M712.083 690.069C699.693 696.533 676.274 703.02 661.655 706.144C657.474 673.792 669.239 626.028 663.125 602.646C656.778 578.393 654.773 557.391 650.917 532.809C649.24 522.095 651.157 499.742 650.612 488.962C650.22 481.254 652.2 471.779 649.59 464.719L676.039 529.499C678.136 546.135 690.714 558.757 699.112 572.888C702.973 624.696 707.983 672.117 718.386 679.315C719.637 680.179 722.637 684.63 712.083 690.069Z" fill="#D83A0F"/>
<path d="M651.879 390.154C651.879 405.807 639.126 418.496 623.395 418.496C607.663 418.496 594.91 405.807 594.91 390.154C594.91 374.502 607.663 361.812 623.395 361.812C639.126 361.812 651.879 374.502 651.879 390.154Z" fill="#212030"/>
<path d="M648.827 390.154C648.827 401.613 639.488 410.904 627.971 410.904C616.453 410.904 607.117 401.613 607.117 390.154C607.117 378.694 616.453 369.404 627.971 369.404C639.488 369.404 648.827 378.694 648.827 390.154Z" fill="#3C3C56"/>
<path d="M646.793 390.154C646.793 397.84 640.531 404.071 632.805 404.071C625.08 404.071 618.816 397.84 618.816 390.154C618.816 382.467 625.08 376.236 632.805 376.236C640.531 376.236 646.793 382.467 646.793 390.154Z" fill="#212030"/>
<path d="M633.822 384.755C610.731 392.067 573.739 386.726 551.637 377.859C551.739 382.31 550.651 391.981 550.911 396.396C562.21 401.34 574.004 401.871 586.517 402.469C599.499 403.089 623.576 399.714 635.348 394.371L633.822 384.755" fill="#8A8A8E"/>
<path d="M640.432 389.31C640.432 392.385 637.928 394.877 634.837 394.877C631.747 394.877 629.242 392.385 629.242 389.31C629.242 386.236 631.747 383.744 634.837 383.744C637.928 383.744 640.432 386.236 640.432 389.31Z" fill="#8A8A8E"/>
<path d="M742.383 597.281C741.971 597.619 741.554 597.954 741.125 598.278C734.559 603.273 726.024 605.881 709.487 593.1C707.631 591.669 705.677 590.044 703.617 588.207C690.469 576.501 679.527 552.877 669.411 539.11C668.251 537.531 667.091 535.902 665.937 534.216C649.329 510.035 633.643 475.473 634.063 446.403C634.243 434.15 637.06 424.858 648.947 421.503C656.943 419.246 671.97 410.324 691.354 440.958C691.354 440.958 723.079 506.968 737.814 553.514C744.692 575.246 747.871 592.736 742.383 597.281" fill="#FF5821"/>
<path d="M853.957 567.338C842.194 563.44 827.906 570.96 817.191 575.65L828.053 586.748C836.348 588.332 839.786 588.384 848.116 588.15C870.898 587.508 873.156 591.072 880.817 589.026C879.143 578.951 865.569 571.183 853.957 567.338" fill="#FFA471"/>
<path d="M836.954 589.174C835.977 591.204 813.76 596.801 791.902 601.599C773.728 605.581 755.798 609.012 750.543 609.372C734.577 610.455 718.93 604.604 709.488 593.1C704.591 587.134 701.361 579.653 700.619 570.827C700.563 570.215 700.523 569.592 700.496 568.965L720.767 553.727C726.545 552.488 732.079 552.592 737.816 553.514C758.117 556.764 780.951 570.231 826.19 570.605C826.19 570.605 839.233 584.422 836.954 589.174" fill="#FF5821"/>
<path d="M791.9 601.599C773.726 605.581 755.797 609.012 750.542 609.372C734.575 610.455 718.929 604.604 709.487 593.1C707.632 591.669 705.678 590.044 703.617 588.207C690.47 576.501 679.527 552.877 669.411 539.11C668.251 537.531 667.092 535.902 665.938 534.217C657.89 510.729 648.594 496.874 649.392 472.839C657.785 511.554 693.002 560.355 700.617 570.827C706.782 579.314 713.782 587.236 722.407 594.174C721.349 588.504 721.609 582.089 722.046 576.363C726.66 587.756 733.043 594.488 741.126 598.278C749.972 602.428 760.857 603.06 773.701 602.428C779.591 602.14 785.745 601.912 791.9 601.599" fill="#D83A0F"/>
<path d="M520.598 860.082C520.598 863.258 518.801 865.834 516.586 865.834H489.607C487.391 865.834 485.594 863.258 485.594 860.082C485.594 856.908 487.391 854.33 489.607 854.33H516.586C518.801 854.33 520.598 856.908 520.598 860.082Z" fill="#44283E"/>
<path d="M508.772 862.56C518.292 861.051 528.002 861.757 537.521 860.184C547.153 858.593 555.084 853.315 563.01 847.966C570.832 842.685 578.569 837.223 587.27 833.436C596.652 829.352 607.486 829.571 617.468 828.192C620.399 827.787 619.148 823.372 616.244 823.772C606.232 825.155 595.709 825.081 586.221 828.941C577.499 832.493 569.735 837.862 561.993 843.124C553.926 848.604 546.081 854.004 536.297 855.765C526.822 857.473 517.066 856.63 507.549 858.142C504.622 858.606 505.87 863.022 508.772 862.56Z" fill="#44283E"/>
<path d="M809.963 783.524V790.582C809.963 798.175 803.779 804.329 796.148 804.329H481.133C473.502 804.329 467.316 798.175 467.316 790.582V783.524C467.316 775.931 473.502 769.777 481.133 769.777H796.148C803.779 769.777 809.963 775.931 809.963 783.524" fill="#553D57"/>
<path d="M824.375 769.777V771.033C824.375 779.593 818.429 786.933 809.963 790.04V790.582C809.963 798.175 803.778 804.329 796.147 804.329H602.024C594.752 804.329 588.783 798.733 588.248 791.626C588.22 791.283 588.207 790.935 588.207 790.582V783.524C588.207 775.931 594.397 769.777 602.024 769.777H824.375Z" fill="#44283E"/>
<path d="M660.309 842.041H625.317L516.996 787.054H766.796L660.309 842.041" fill="#44283E"/>
<path d="M646.742 842.04H624.937L516.613 787.054H594.543L646.742 842.04" fill="#553D57"/>
<path d="M633.242 903.448H650.128V844.789H633.242V903.448Z" fill="#44283E"/>
<path d="M634.09 958.289H635.78V903.448H634.09V958.289Z" fill="#FFFEF8"/>
<path d="M635.777 958.289H642.249V903.448H635.777V958.289Z" fill="#CDBDC4"/>
<path d="M642.25 958.289H645.917V903.448H642.25V958.289Z" fill="#F0F0F0"/>
<path d="M645.918 903.448H634.09V870.452H645.918V903.448Z" fill="#572F4B"/>
<path d="M655.196 958.289H628.176V870.452H655.196V958.289Z" fill="#44283E"/>
<path d="M640.004 958.289H628.176V870.452H640.004V958.289Z" fill="#69698E"/>
<path d="M663.788 847.69C663.788 850.814 661.783 853.344 659.31 853.344H624.096C621.625 853.344 619.621 850.814 619.621 847.69C619.621 846.127 620.12 844.717 620.932 843.693C621.742 842.672 622.86 842.039 624.096 842.039H659.31C661.783 842.039 663.788 844.57 663.788 847.69" fill="#553D57"/>
<path d="M663.788 847.69C663.788 850.814 661.784 853.344 659.311 853.344H646.184C643.712 853.344 641.707 850.814 641.707 847.69C641.707 846.127 642.206 844.717 643.017 843.693C643.828 842.672 644.95 842.039 646.184 842.039H659.311C661.784 842.039 663.788 844.57 663.788 847.69" fill="#44283E"/>
<path d="M650.881 952.45V1001.58C650.881 1004.25 649.633 1006.63 647.684 1008.16C647.007 1008.7 646.243 1009.14 645.414 1009.45C644.487 1009.8 643.484 1009.98 642.438 1009.98C641.394 1009.98 640.388 1009.8 639.463 1009.45C638.634 1009.14 637.869 1008.7 637.188 1008.16C636.935 1007.96 636.694 1007.75 636.465 1007.52C634.935 1006 633.992 1003.9 633.992 1001.58V952.45C633.992 949.788 635.24 947.41 637.188 945.873C637.869 945.333 638.634 944.898 639.463 944.587C640.388 944.239 641.394 944.05 642.438 944.05C643.484 944.05 644.487 944.239 645.414 944.587C646.243 944.898 647.007 945.333 647.684 945.873C647.938 946.073 648.177 946.282 648.407 946.512C649.937 948.034 650.881 950.132 650.881 952.45" fill="#44283E"/>
<path d="M643.65 983.243C643.65 983.91 643.106 984.452 642.435 984.452C641.762 984.452 641.219 983.91 641.219 983.243V954.498C641.219 953.832 641.762 953.289 642.435 953.289C643.106 953.289 643.65 953.832 643.65 954.498V983.243Z" fill="#553D57"/>
<path d="M646.733 998.606H635.289V982.093H646.733V998.606Z" fill="#44283E"/>
<path d="M639.594 998.606H635.289V982.093H639.594V998.606Z" fill="#69698E"/>
<path d="M636.607 1009.42C636.607 1018.58 629.14 1026.01 619.927 1026.01C610.716 1026.01 603.25 1018.58 603.25 1009.42C603.25 1000.25 610.716 992.823 619.927 992.823C629.14 992.823 636.607 1000.25 636.607 1009.42" fill="#2D2D3F"/>
<path d="M628.268 1009.42C628.268 1014 624.536 1017.71 619.928 1017.71C615.324 1017.71 611.59 1014 611.59 1009.42C611.59 1004.83 615.324 1001.12 619.928 1001.12C624.536 1001.12 628.268 1004.83 628.268 1009.42Z" fill="#1D1D28"/>
<path d="M648.806 1003.88H600.488C601.016 995.34 611.624 988.526 624.644 988.526C626.46 988.526 628.232 988.658 629.936 988.911C640.433 990.458 648.35 996.53 648.806 1003.88" fill="#69698E"/>
<path d="M648.806 1003.88H611.066C611.528 996.53 619.445 990.458 629.935 988.911C640.432 990.458 648.349 996.53 648.806 1003.88" fill="#44283E"/>
<path d="M498.664 996.455H487.219V979.941H498.664V996.455Z" fill="#44283E"/>
<path d="M491.525 996.455H487.219V979.941H491.525V996.455Z" fill="#49363E"/>
<path d="M488.541 1007.26C488.541 1016.43 481.073 1023.86 471.861 1023.86C462.65 1023.86 455.184 1016.43 455.184 1007.26C455.184 998.1 462.65 990.67 471.861 990.67C481.073 990.67 488.541 998.1 488.541 1007.26Z" fill="#2D2D3F"/>
<path d="M480.199 1007.26C480.199 1011.85 476.464 1015.56 471.858 1015.56C467.253 1015.56 463.52 1011.85 463.52 1007.26C463.52 1002.68 467.253 998.968 471.858 998.968C476.464 998.968 480.199 1002.68 480.199 1007.26Z" fill="#1D1D28"/>
<path d="M500.738 1001.73H452.418C452.948 993.189 463.555 986.375 476.575 986.375C478.393 986.375 480.161 986.507 481.868 986.76C492.365 988.308 500.282 994.38 500.738 1001.73" fill="#69698E"/>
<path d="M500.736 1001.73H462.996C463.459 994.38 471.376 988.308 481.866 986.76C492.363 988.308 500.28 994.38 500.736 1001.73Z" fill="#44283E"/>
<path d="M628.251 932.129C618.893 933.775 493.763 960.595 477.495 977.188C473.124 981.644 483.999 984.149 488.854 983.241L628.251 957.143V932.129Z" fill="#44283E"/>
<path d="M628.251 932.13V945.114C607.36 948.514 496.8 966.953 478.652 978.631C477.563 979.328 477.427 980.349 477.615 981.099C476.307 980.081 475.957 978.758 477.496 977.191C493.764 960.596 618.897 933.775 628.251 932.13Z" fill="#69698E"/>
<path d="M628.157 932.129V934.878C619.124 936.469 499.451 961.675 476.578 978.345C476.74 977.979 477.012 977.593 477.403 977.191C493.671 960.596 618.804 933.775 628.157 932.129Z" fill="#69698E"/>
<path d="M784.746 996.455H796.19V979.941H784.746V996.455Z" fill="#44283E"/>
<path d="M791.883 996.455H796.189V979.941H791.883V996.455Z" fill="#49363E"/>
<path d="M794.871 1007.26C794.871 1016.43 802.337 1023.86 811.548 1023.86C820.76 1023.86 828.229 1016.43 828.229 1007.26C828.229 998.1 820.76 990.67 811.548 990.67C802.337 990.67 794.871 998.1 794.871 1007.26Z" fill="#2D2D3F"/>
<path d="M803.207 1007.26C803.207 1011.85 806.942 1015.56 811.546 1015.56C816.152 1015.56 819.888 1011.85 819.888 1007.26C819.888 1002.68 816.152 998.968 811.546 998.968C806.942 998.968 803.207 1002.68 803.207 1007.26Z" fill="#1D1D28"/>
<path d="M782.672 1001.73H830.989C830.463 993.189 819.853 986.375 806.835 986.375C805.015 986.375 803.247 986.507 801.54 986.76C791.043 988.308 783.126 994.38 782.672 1001.73Z" fill="#69698E"/>
<path d="M782.672 1001.73H820.409C819.948 994.38 812.031 988.308 801.54 986.76C791.043 988.308 783.126 994.38 782.672 1001.73Z" fill="#44283E"/>
<path d="M655.156 932.129C664.513 933.775 789.645 960.595 805.912 977.188C810.281 981.644 799.408 984.149 794.552 983.241L655.156 957.143V932.129Z" fill="#44283E"/>
<path d="M655.157 932.13L655.156 945.114C676.047 948.514 786.608 966.953 804.755 978.631C805.844 979.328 805.979 980.349 805.789 981.099C807.098 980.081 807.448 978.758 805.911 977.191C789.645 960.596 664.511 933.775 655.157 932.13Z" fill="#69698E"/>
<path d="M655.254 932.129V934.878C664.284 936.469 783.959 961.675 806.831 978.345C806.671 977.979 806.399 977.593 806.007 977.191C789.741 960.596 664.607 933.775 655.254 932.129" fill="#69698E"/>
<path d="M775.506 623.469C770.397 620.362 759.669 619.802 753.853 619.802H650.973C654.437 628.789 657.246 638.073 660.169 647.298H756.385L756.509 647.33H756.514L756.565 647.362L756.578 647.371C756.868 647.6 757.169 647.847 757.388 648.068L757.398 648.082L757.463 648.178C757.675 648.502 757.868 648.838 758.052 649.182L758.057 649.191C758.279 649.874 758.467 650.56 758.624 651.262V651.266C758.742 653.471 758.661 655.698 758.661 657.898V748.132C758.661 755.624 764.947 761.88 772.478 761.88C773.597 761.88 774.683 761.744 775.729 761.477C781.735 759.997 786.294 754.512 786.294 748.132V652.883C786.294 641.097 785.74 629.7 775.506 623.469" fill="#553D57"/>
<path d="M756.712 647.207C756.611 647.083 756.56 647.018 756.547 646.995C756.56 647 756.634 647.087 756.734 647.211L756.712 647.207Z" fill="#553D57"/>
<path d="M756.797 647.312L756.793 647.302L756.815 647.307L756.828 647.325L756.797 647.312Z" fill="#553D57"/>
<path d="M757.079 647.655L756.914 647.451L756.937 647.458L757.088 647.66L757.079 647.655Z" fill="#553D57"/>
<path d="M766.846 633.551C761.745 630.444 749.516 629.884 743.695 629.884H654.594C656.535 635.653 658.331 641.488 660.172 647.298H756.388L756.512 647.33H756.516L756.567 647.362L756.581 647.371C756.871 647.6 757.171 647.847 757.391 648.068L757.401 648.082L757.465 648.178C757.678 648.502 757.871 648.838 758.055 649.182L758.06 649.191C758.282 649.874 758.47 650.56 758.627 651.262V651.266C758.745 653.471 758.663 655.698 758.663 657.898V748.132C758.663 755.624 764.95 761.88 772.48 761.88C773.599 761.88 774.686 761.744 775.732 761.477C776.004 760.427 776.141 759.338 776.141 758.215V662.967C776.141 651.179 777.086 639.783 766.846 633.551" fill="#44283E"/>
<path d="M762.242 627.937C773.897 628.105 779.196 638.713 778.938 649.131C778.882 651.349 782.336 651.343 782.39 649.131C782.544 642.91 781.189 636.404 777.165 631.475C773.45 626.929 768.091 624.585 762.242 624.5C760.012 624.467 760.014 627.904 762.242 627.937Z" fill="#717199"/>
<path d="M455.554 408.359C455.579 418.938 464.217 427.493 474.848 427.47L560.974 427.275C571.607 427.25 580.205 418.655 580.182 408.077L580.112 377.424C580.088 366.846 571.448 358.289 560.816 358.314L474.69 358.508C464.059 358.532 455.46 367.126 455.484 377.707L455.554 408.359" fill="#00B8D6"/>
<path d="M459.069 419.367C457.117 416.621 455.871 413.34 455.602 409.788C455.603 409.788 455.605 409.788 455.608 409.788C455.88 413.34 457.125 416.621 459.078 419.366H459.076C459.074 419.367 459.072 419.367 459.069 419.367Z" fill="#E0D3C7"/>
<path d="M459.079 419.366C457.127 416.621 455.882 413.34 455.609 409.788C455.979 409.811 456.349 409.824 456.722 409.824C456.758 409.824 456.794 409.824 456.83 409.824L542.957 409.631C553.589 409.605 562.189 401.01 562.164 390.431L562.093 359.78C562.091 359.299 562.073 358.822 562.034 358.35C572.095 358.955 580.08 367.254 580.103 377.424L580.172 408.076C580.18 411.322 579.375 414.382 577.949 417.064H577.945C564.913 416.223 548.542 415.901 532.574 415.901C506.479 415.901 481.458 416.76 473.844 417.611C468.79 418.176 463.739 418.774 459.079 419.366" fill="#009BB7"/>
<path d="M684.812 704.497C684.212 717.823 685.143 735.368 681.42 749.352C680.935 751.17 680.376 752.925 679.722 754.605C679.685 754.717 679.639 754.828 679.594 754.939C679.319 755.638 672.803 792.568 672.487 793.235C641.698 793.615 600.534 794.344 563.107 794.662C541.982 794.84 522.047 794.886 505.842 794.662C482.539 794.344 466.936 793.463 466.563 791.622C456.929 791.622 448.633 783.139 447.738 772.041L446.466 756.245L446.075 751.366L421.4 445.396C421.314 444.342 421.298 443.304 421.349 442.282C421.841 432.044 428.887 423.658 438.155 422.919C440.302 422.008 448.71 420.692 459.076 419.366C463.736 418.774 468.787 418.177 473.842 417.611C486.116 416.239 543.615 414.847 577.943 417.064H577.954C584.063 417.454 589.44 417.965 593.697 418.607C622.975 423.021 636.567 439.712 641.588 469.186C641.754 470.199 641.933 471.21 642.105 472.228C643.621 481.045 645.163 489.856 646.729 498.676C647.401 502.437 648.072 506.198 648.749 509.963C651.694 526.28 654.73 542.632 657.843 559.034C658.342 561.686 658.851 564.337 659.354 566.994C659.563 568.078 659.781 569.172 660.011 570.26C666.282 600.276 679.722 629.953 682.85 660.273C683.413 665.785 683.933 671.353 684.314 676.945C684.945 686.1 685.219 695.326 684.812 704.497" fill="#00B8D6"/>
<path d="M541.015 766.064C495.371 766.064 449.709 757.009 446.466 756.245L446.075 751.366L427.932 526.399L427.789 524.611L427.474 520.713L427.332 518.958L426.901 513.599L426.756 511.811L426.316 506.354L426.173 504.572L422.984 465.033L421.401 445.396C421.347 444.737 421.32 444.085 421.32 443.439C421.32 443.051 421.33 442.666 421.349 442.282C424.711 441.362 428.11 440.344 431.492 439.322C439.748 436.816 447.926 434.261 455.424 432.904C457.103 432.596 458.751 432.353 460.353 432.18C468.715 431.292 476.987 430.953 485.205 430.953C502.43 430.953 519.436 432.437 536.661 433.44C558.89 434.736 585.269 434.458 603.514 448.922C622.065 463.629 622.116 489.952 625.096 510.884C631.943 558.929 637.437 609.781 637.386 659.611C637.359 681.813 641.007 712.381 632.808 732.5C630.02 739.336 625.243 744.884 618.987 749.352C601.078 762.139 571.046 766.064 541.015 766.064" fill="#009BB7"/>
<path d="M825.393 769.955V774.07C825.393 782.629 816.618 789.971 804.126 793.079C800.022 794.096 795.526 794.663 790.799 794.663H505.845C482.543 794.344 466.94 793.463 466.567 791.622C456.933 791.622 448.637 783.139 447.741 772.041L446.469 756.245L446.078 751.366C450.6 750.077 455.661 749.352 461.013 749.352H790.799C809.905 749.352 825.393 758.573 825.393 769.955" fill="#00B8D6"/>
<path d="M969.24 560.559C969.24 561.71 969.211 562.85 969.153 563.977L969.148 564.082L969.144 564.135L969.14 564.192C969.127 564.474 969.111 564.752 969.091 565.03C968.664 571.487 967.32 577.533 965.259 582.874C963.751 586.787 961.854 590.321 959.654 593.357C957.362 596.519 954.739 599.141 951.869 601.094H927.648C924.997 599.29 922.556 596.914 920.393 594.071C914.193 585.924 910.277 573.931 910.277 560.559C910.277 557.01 910.554 553.559 911.074 550.25H968.441C968.849 552.842 969.106 555.521 969.2 558.265C969.227 559.027 969.24 559.791 969.24 560.559Z" fill="#FF2E2E"/>
<path d="M969.116 563.787C969.025 563.417 969.166 564.433 969.149 564.049C969.134 563.667 969.031 564.682 969.108 564.297C969.237 563.655 968.883 564.661 969.145 564.187L969.335 563.899C969.591 563.526 968.98 564.327 969.289 563.968C969.501 563.718 969.744 563.491 969.99 563.27C970.104 563.167 970.226 563.068 970.346 562.97C970.775 562.616 969.946 563.266 970.407 562.921C970.69 562.712 970.984 562.515 971.279 562.322C971.985 561.861 972.725 561.454 973.471 561.065C974.211 560.68 974.97 560.332 975.738 560.003C975.297 560.194 975.942 559.923 975.977 559.909C976.175 559.83 976.372 559.754 976.57 559.679C977.027 559.505 977.49 559.343 977.953 559.188C978.714 558.935 979.485 558.715 980.264 558.524C980.626 558.434 980.989 558.358 981.354 558.288C981.529 558.255 981.702 558.226 981.877 558.197C982.301 558.129 981.435 558.241 982.101 558.171C983.789 557.993 984.932 558.225 986.528 558.798C987.218 559.046 986.161 558.619 986.816 558.918C987.018 559.008 987.212 559.113 987.407 559.216C987.786 559.418 988.144 559.656 988.493 559.905C988.118 559.638 988.657 560.049 988.687 560.077C988.844 560.211 988.994 560.356 989.141 560.501C989.289 560.646 989.425 560.799 989.56 560.953C989.727 561.155 989.737 561.161 989.593 560.972C989.674 561.08 989.753 561.19 989.83 561.303C990.064 561.636 990.265 561.993 990.452 562.356C990.476 562.403 990.742 563.017 990.555 562.562C990.634 562.755 990.7 562.95 990.764 563.146C990.895 563.545 990.987 563.955 991.065 564.367C991.195 565.05 991.026 563.914 991.099 564.614C991.128 564.904 991.137 565.197 991.142 565.488C991.173 567.108 990.579 569.123 989.896 570.562C988.267 573.992 985.509 576.144 982.068 577.921C980.292 578.838 978.79 579.401 976.766 580.056C974.858 580.675 972.912 581.174 970.959 581.628C968.24 582.26 965.373 582.648 962.768 583.672C961.173 584.301 959.778 585.128 958.784 586.556C957.693 588.124 957.952 590.126 958.666 591.77C960.136 595.154 963.702 595.971 966.913 594.59C968.166 594.049 969.345 592.814 969.617 591.46C970.012 589.478 968.899 587.939 967.324 586.859C966.301 586.157 964.799 586.666 964.208 587.672C963.544 588.799 964.005 590.074 965.024 590.773C965.577 591.153 964.732 590.496 965.17 590.896C965.581 591.272 964.937 590.508 965.214 590.924C965.485 591.329 965.064 590.433 965.194 590.869C965.035 590.333 965.165 590.478 965.155 590.742C965.182 590.051 965.047 590.755 965.308 590.163C965.246 590.305 964.982 590.652 965.395 590.12L965.121 590.408C964.855 590.659 965.547 590.14 965.011 590.468C964.884 590.547 964.748 590.611 964.613 590.674C965.177 590.408 964.716 590.618 964.581 590.659C964.431 590.708 964.277 590.739 964.124 590.769C963.583 590.882 964.649 590.728 964.1 590.763C963.94 590.773 963.781 590.766 963.622 590.757C963.075 590.73 964.138 590.86 963.605 590.742C963.476 590.714 962.989 590.519 963.555 590.765C963.42 590.707 962.87 590.312 963.344 590.691C963.214 590.587 963.103 590.462 962.991 590.337C963.355 590.745 963.014 590.309 962.957 590.202C962.858 590.021 962.763 589.842 962.676 589.657C962.9 590.13 962.68 589.613 962.652 589.519C962.61 589.389 962.516 588.835 962.606 589.499C962.587 589.355 962.588 589.209 962.589 589.065C962.594 588.566 962.477 589.605 962.581 589.131C962.711 588.535 962.417 589.4 962.584 589.067C962.643 588.951 962.717 588.844 962.792 588.737C962.426 589.263 962.671 588.909 962.786 588.79L963.098 588.511C962.61 588.92 962.99 588.604 963.11 588.526C963.369 588.355 963.646 588.213 963.925 588.077C964.028 588.028 964.539 587.814 963.98 588.045C964.188 587.958 964.401 587.883 964.615 587.808C967.334 586.854 970.289 586.455 973.089 585.783C977.119 584.817 981.117 583.551 984.791 581.614C988.419 579.703 991.671 576.908 993.618 573.271C995.567 569.628 996.473 565.1 994.872 561.166C993.286 557.266 989.81 554.656 985.684 553.869C982.288 553.221 978.954 554.003 975.755 555.16C973.086 556.125 970.41 557.336 968.107 559.008C966.199 560.394 964.078 562.393 964.723 564.992C965.428 567.83 969.82 566.627 969.116 563.787" fill="#FF2E2E"/>
<path d="M952.086 555.938C952.086 577.537 940.487 595.049 926.178 595.049C924.19 595.049 922.254 594.711 920.393 594.071C914.193 585.924 910.277 573.931 910.277 560.559C910.277 557.01 910.554 553.559 911.074 550.25H951.813C951.993 552.107 952.086 554.005 952.086 555.938" fill="#FF5555"/>
<path d="M924.385 597.601C923.466 597.601 922.6 597.084 922.022 596.28C920.837 594.636 919.911 592.802 919.096 590.953C918.028 588.531 917.083 586.056 916.359 583.508C914.989 578.689 913.949 573.208 915.32 568.271C915.644 567.1 916.746 566.315 917.922 566.315C918.152 566.315 918.385 566.345 918.616 566.408C920.023 566.793 920.877 568.288 920.49 569.688C920.374 570.1 920.276 570.516 920.203 570.938C920.197 571.013 920.141 571.439 920.135 571.535C920.118 571.748 920.101 571.961 920.091 572.171C920.043 573.3 920.078 574.43 920.188 575.555C920.214 575.808 920.239 576.062 920.27 576.317C920.269 576.304 920.269 576.298 920.269 576.298C920.271 576.298 920.357 576.907 920.371 576.99C920.464 577.556 920.566 578.122 920.684 578.686C920.94 579.913 921.243 581.129 921.598 582.332C921.948 583.52 922.33 584.697 922.763 585.858C922.983 586.454 923.211 587.048 923.454 587.634C923.503 587.75 923.532 587.819 923.541 587.842C923.571 587.913 923.603 587.984 923.633 588.056C923.724 588.26 923.814 588.465 923.907 588.669C924.687 590.374 925.551 592.062 926.651 593.589C927.504 594.773 926.86 596.554 925.689 597.236C925.259 597.487 924.816 597.601 924.385 597.601V597.601ZM920.284 576.43C920.286 576.444 920.288 576.46 920.29 576.475C920.288 576.459 920.286 576.443 920.284 576.43Z" fill="#FF8B60"/>
</svg>
